<svg xmlns="http://www.w3.org/2000/svg" xmlns:xlink="http://www.w3.org/1999/xlink" width="500" zoomAndPan="magnify" viewBox="0 0 375 374.999991" height="500" preserveAspectRatio="xMidYMid meet" version="1.0"><path fill="#f39143" d="M 258.128906 147.894531 C 252.457031 150.09375 248.636719 155.59375 248.636719 161.730469 C 248.636719 163.582031 249.042969 165.433594 249.679688 167.171875 C 252.339844 173.941406 253.671875 181.179688 253.671875 188.472656 C 253.671875 221.003906 226.929688 247.746094 194.398438 247.746094 C 161.867188 247.746094 135.125 221.003906 135.125 188.472656 C 135.125 155.941406 161.867188 129.199219 194.398438 129.199219 C 201.574219 129.199219 208.753906 130.527344 215.46875 133.074219 C 217.148438 133.710938 218.941406 134.058594 220.734375 134.058594 C 228.839844 134.058594 235.554688 127.34375 235.554688 119.242188 C 235.554688 113.105469 231.734375 107.550781 226.003906 105.347656 C 215.929688 101.527344 205.28125 99.617188 194.515625 99.617188 C 145.773438 99.617188 105.601562 139.734375 105.601562 188.53125 C 105.601562 212.03125 114.980469 234.664062 131.59375 251.335938 C 166.09375 285.777344 222.761719 285.777344 257.261719 251.335938 C 282.152344 226.503906 290.082031 189.109375 277.40625 156.347656 C 275.207031 150.617188 269.707031 146.851562 263.570312 146.851562 C 261.71875 146.851562 259.867188 147.199219 258.128906 147.894531 " fill-opacity="1" fill-rule="nonzero"/><path fill="#f39143" d="M 295.929688 69.054688 C 304.089844 69.054688 310.746094 75.710938 310.746094 83.875 C 310.746094 92.035156 304.089844 98.691406 295.929688 98.691406 C 287.765625 98.691406 281.109375 92.035156 281.109375 83.875 C 281.109375 75.710938 287.765625 69.054688 295.929688 69.054688 " fill-opacity="1" fill-rule="evenodd"/><path fill="#f39143" d="M 370.019531 83.875 C 370.019531 43.757812 337.488281 10.589844 297.433594 9.78125 C 227.914062 3.414062 157.988281 3.414062 88.46875 9.78125 C 48.296875 9.78125 15.011719 42.484375 14.375 82.660156 C 9.050781 152.121094 9.050781 221.871094 14.375 291.332031 C 14.375 331.449219 46.90625 364.617188 86.964844 365.425781 C 121.984375 368.667969 157.0625 370.460938 192.199219 370.460938 C 227.335938 370.460938 262.007812 368.839844 296.679688 365.425781 C 336.5625 365.019531 369.382812 332.433594 370.019531 292.550781 C 375.636719 223.085938 375.636719 153.335938 370.019531 83.875 Z M 340.382812 291.332031 C 340.382812 315.703125 320.296875 335.789062 295.929688 335.789062 L 294.421875 335.789062 C 225.945312 342.445312 156.945312 342.445312 88.46875 335.789062 C 64.042969 335.789062 44.011719 315.703125 44.011719 291.332031 C 44.011719 290.929688 44.011719 290.523438 44.011719 290.117188 C 38.804688 221.464844 38.804688 152.527344 44.011719 83.875 C 44.011719 59.445312 64.097656 39.417969 88.46875 39.417969 C 88.933594 39.417969 89.335938 39.417969 89.800781 39.417969 C 123.777344 36.351562 157.871094 34.789062 192.023438 34.671875 C 226.234375 34.554688 260.851562 36.175781 295.929688 39.417969 C 320.355469 39.417969 340.382812 59.503906 340.382812 83.875 C 340.382812 84.277344 340.382812 84.683594 340.382812 85.089844 C 346 153.683594 346 222.683594 340.382812 291.332031 " fill-opacity="1" fill-rule="nonzero"/></svg>