<svg xmlns="http://www.w3.org/2000/svg" xmlns:xlink="http://www.w3.org/1999/xlink" width="500" zoomAndPan="magnify" viewBox="0 0 375 374.999991" height="500" preserveAspectRatio="xMidYMid meet" version="1.0"><defs><clipPath id="id1"><path d="M 9.007812 8.25 L 366 8.25 L 366 365.902344 L 9.007812 365.902344 Z M 9.007812 8.25 " clip-rule="nonzero"/></clipPath></defs><g clip-path="url(#id1)"><path fill="#5f2f66" d="M 9.648438 82.242188 C 8.980469 111.132812 9.394531 143.308594 10.390625 175.511719 C 11.382812 207.664062 12.933594 239.773438 15.183594 268.507812 C 16.15625 285.386719 17.910156 305.210938 24.570312 322.125 C 29.324219 334.203125 36.539062 344.859375 47.820312 352.214844 C 58.882812 359.480469 72.109375 362.6875 85.996094 363.832031 C 105.175781 365.421875 125.660156 362.929688 142.851562 362.226562 C 157.789062 361.613281 172.710938 361.714844 187.640625 362.125 C 222.972656 363.089844 258.289062 365.800781 293.679688 365.410156 C 313.621094 365.09375 333.054688 362.453125 346.308594 352.769531 C 356.328125 345.445312 363.324219 334.332031 364.890625 317.261719 C 365.859375 305.667969 365.988281 294.0625 365.457031 282.46875 C 364.269531 256.457031 360.15625 230.515625 359.113281 204.582031 C 358.691406 195.28125 358.726562 185.953125 359.023438 176.605469 C 359.738281 154.316406 361.867188 131.976562 362.652344 109.804688 C 363.199219 94.398438 364.933594 76.019531 361.363281 59.894531 C 358.714844 47.9375 353.347656 37.117188 342.914062 29.199219 C 330.910156 19.914062 316.9375 15.410156 302.234375 13.316406 C 281.574219 10.371094 259.378906 12.328125 239.632812 12.777344 C 230.5625 12.933594 221.492188 12.863281 212.414062 12.621094 C 175.6875 11.648438 138.925781 8.253906 102.164062 8.816406 C 75.347656 9.148438 53.828125 11.917969 38.460938 21.375 C 21.707031 31.6875 11.273438 49.742188 9.652344 82.234375 Z M 120.609375 167.613281 C 113.445312 167.226562 106.296875 166.664062 99.132812 166.265625 C 87.019531 165.589844 74.894531 165.21875 62.769531 165.082031 C 53.21875 164.847656 43.761719 165.464844 34.253906 165.546875 C 31.550781 165.570312 28.847656 165.554688 26.132812 165.464844 C 26.023438 168.800781 25.925781 172.136719 25.84375 175.472656 C 25.015625 207.40625 25.164062 239.328125 25.96875 267.9375 C 26.738281 283.769531 27.808594 302.492188 34.15625 318.316406 C 38.152344 328.269531 44.324219 336.984375 53.78125 342.855469 C 63.429688 348.804688 74.882812 351.085938 86.800781 351.679688 C 105.503906 352.613281 125.324219 349.332031 142.015625 348.042969 C 157.257812 346.867188 172.515625 346.414062 187.792969 346.285156 C 222.878906 345.992188 258.015625 347.476562 293.121094 345.851562 C 306.066406 345.316406 318.816406 344.066406 328.710938 339.261719 C 337.113281 335.183594 342.753906 327.941406 343.714844 315.46875 C 344.636719 304.738281 344.613281 294.003906 344.292969 283.265625 C 343.515625 257.183594 340.550781 231.0625 340.289062 205.054688 C 340.242188 195.269531 340.671875 185.476562 341.390625 175.675781 C 341.625 172.484375 341.886719 169.285156 342.171875 166.09375 C 337.101562 166.289062 332.042969 166.546875 326.988281 166.574219 C 320.472656 166.605469 313.996094 166.171875 307.488281 166.125 C 304.703125 166.101562 301.917969 166.125 299.132812 166.1875 C 291.410156 166.363281 283.675781 166.609375 275.921875 167.019531 C 269.558594 167.355469 263.207031 167.882812 256.800781 168.328125 C 258.859375 174.375 260.082031 180.765625 260.347656 187.386719 C 261.292969 208.667969 253.292969 229.117188 239.617188 243.851562 C 232.359375 251.671875 223.421875 257.914062 213.4375 261.546875 C 203.640625 265.113281 192.859375 266.136719 181.796875 264.523438 C 164.511719 261.699219 150.667969 253.46875 140.539062 241.902344 C 136.167969 236.910156 132.527344 231.371094 129.425781 225.515625 C 125.042969 217.25 121.867188 208.34375 120.195312 199.183594 C 118.265625 188.613281 118.335938 177.828125 120.609375 167.613281 Z M 169.359375 140.59375 C 178.726562 136.75 187.488281 134.535156 195.832031 134.445312 C 205.722656 134.335938 214.765625 136.324219 222.371094 140.539062 C 224.996094 141.992188 227.453125 143.695312 229.660156 145.640625 C 233.03125 148.601562 235.851562 152.097656 238.207031 155.847656 C 243.964844 165.011719 246.464844 176.007812 245.800781 187.273438 C 244.800781 203.894531 236.699219 218.804688 225.238281 229.550781 C 219.609375 234.832031 213.027344 238.882812 205.886719 241.722656 C 198.976562 244.46875 191.585938 246.363281 183.625 245.953125 C 166.925781 245.34375 153.222656 237.863281 144.101562 226.40625 C 140.808594 222.269531 138.0625 217.671875 136.066406 212.765625 C 134.058594 207.835938 132.84375 202.59375 132.21875 197.332031 C 130.675781 184.332031 133.300781 171.066406 140.109375 160.300781 C 146.132812 150.78125 155.960938 143.777344 169.359375 140.59375 Z M 343.46875 152.703125 C 344.964844 138.097656 346.667969 123.507812 347.789062 108.96875 C 348.894531 94.644531 351.527344 77.589844 348.746094 62.449219 C 347.058594 53.273438 343.347656 44.824219 335.585938 38.550781 C 325.339844 30.421875 313.3125 26.359375 300.636719 24.574219 C 280.625 21.753906 259.125 24.375 240.007812 25.109375 C 203.378906 26.777344 166.570312 24.488281 129.824219 24.710938 C 120.773438 24.765625 111.730469 25.007812 102.691406 25.46875 C 79.898438 26.628906 61.488281 28.808594 48.730469 37.355469 C 36.832031 45.324219 31.210938 59.347656 30.96875 83.070312 C 30.964844 83.15625 30.960938 83.25 30.957031 83.339844 C 29.089844 104.847656 27.59375 128.246094 26.621094 152.144531 C 29.128906 152.222656 31.636719 152.238281 34.136719 152.214844 C 43.789062 152.125 53.390625 151.492188 63.085938 151.714844 C 77.355469 152.214844 91.589844 153.539062 105.859375 154.152344 C 111.902344 154.414062 117.949219 154.417969 124 154.4375 C 124.3125 154.445312 124.621094 154.476562 124.921875 154.523438 C 131.675781 139.507812 144.226562 127.113281 163.207031 120.171875 C 178.3125 117.148438 191.757812 117.390625 203.65625 120.433594 C 212.859375 122.785156 220.902344 126.609375 228.027344 131.476562 C 233.621094 135.296875 238.628906 139.648438 242.972656 144.582031 C 246.046875 148.074219 248.773438 151.839844 251.101562 155.84375 C 258.457031 155.988281 268.28125 155.878906 274.714844 155.917969 C 279.664062 155.949219 284.601562 155.84375 289.527344 155.703125 C 295.09375 155.542969 300.652344 155.378906 306.195312 154.996094 C 311.769531 154.609375 317.269531 153.773438 322.851562 153.40625 C 329.695312 152.960938 336.574219 152.894531 343.46875 152.703125 Z M 281.847656 53.300781 C 277.378906 53.421875 266.300781 58.660156 264.222656 67.347656 C 263.632812 69.8125 259.65625 91.9375 282.1875 93.515625 C 285.65625 93.761719 307.300781 91.878906 304.417969 72.539062 C 301.675781 54.136719 291.105469 53.054688 281.847656 53.300781 Z M 281.847656 53.300781 " fill-opacity="1" fill-rule="evenodd"/></g></svg>