<svg xmlns="http://www.w3.org/2000/svg" xmlns:xlink="http://www.w3.org/1999/xlink" width="500" zoomAndPan="magnify" viewBox="0 0 375 374.999991" height="500" preserveAspectRatio="xMidYMid meet" version="1.0"><defs><clipPath id="id1"><path d="M 20.054688 107 L 355.304688 107 L 355.304688 252.855469 L 20.054688 252.855469 Z M 20.054688 107 " clip-rule="nonzero"/></clipPath><clipPath id="id2"><path d="M 199.074219 112.074219 C 195.964844 113.269531 195.132812 114.511719 195.105469 116.90625 L 195.105469 247.414062 C 195.171875 249.925781 197.097656 252.023438 199.558594 252.269531 C 199.664062 252.277344 313.132812 252.335938 313.863281 252.335938 C 315.214844 252.335938 316.5625 252.269531 317.90625 252.136719 C 319.25 252.003906 320.582031 251.808594 321.910156 251.542969 C 323.234375 251.28125 324.542969 250.953125 325.832031 250.5625 C 327.125 250.171875 328.394531 249.71875 329.644531 249.203125 C 330.890625 248.6875 332.109375 248.113281 333.300781 247.476562 C 334.492188 246.84375 335.648438 246.152344 336.773438 245.402344 C 337.894531 244.65625 338.976562 243.851562 340.023438 243 C 341.066406 242.144531 342.066406 241.242188 343.019531 240.289062 C 343.976562 239.335938 344.878906 238.339844 345.738281 237.300781 C 346.59375 236.257812 347.398438 235.175781 348.148438 234.058594 C 348.898438 232.9375 349.589844 231.785156 350.226562 230.597656 C 350.863281 229.410156 351.441406 228.195312 351.957031 226.949219 C 352.476562 225.707031 352.929688 224.4375 353.324219 223.152344 C 353.714844 221.863281 354.042969 220.558594 354.308594 219.234375 C 354.570312 217.914062 354.769531 216.585938 354.902344 215.246094 C 355.035156 213.90625 355.101562 212.5625 355.105469 211.214844 C 355.101562 210.371094 355.074219 209.53125 355.023438 208.6875 C 354.972656 207.847656 354.894531 207.007812 354.789062 206.171875 C 354.683594 205.332031 354.554688 204.5 354.402344 203.671875 C 354.246094 202.84375 354.066406 202.019531 353.859375 201.203125 C 353.652344 200.386719 353.421875 199.574219 353.164062 198.769531 C 352.90625 197.96875 352.628906 197.171875 352.324219 196.386719 C 352.019531 195.601562 351.691406 194.824219 351.335938 194.058594 C 350.984375 193.292969 350.609375 192.539062 350.210938 191.792969 C 349.808594 191.050781 349.386719 190.320312 348.941406 189.605469 C 348.496094 188.886719 348.03125 188.183594 347.542969 187.496094 C 347.054688 186.808594 346.546875 186.132812 346.019531 185.476562 C 345.488281 184.820312 344.941406 184.179688 344.371094 183.554688 C 343.800781 182.929688 343.214844 182.324219 342.609375 181.738281 C 342 181.148438 341.378906 180.582031 340.738281 180.03125 C 340.097656 179.480469 339.4375 178.953125 338.765625 178.445312 C 338.089844 177.933594 337.402344 177.445312 336.699219 176.980469 C 335.996094 176.511719 335.277344 176.070312 334.546875 175.644531 C 333.8125 175.222656 333.070312 174.824219 332.3125 174.445312 C 331.558594 174.066406 330.789062 173.714844 330.011719 173.382812 C 329.234375 173.054688 328.445312 172.746094 327.652344 172.464844 C 326.855469 172.183594 326.050781 171.925781 325.238281 171.691406 C 324.425781 171.460938 323.605469 171.253906 322.78125 171.070312 C 321.953125 170.886719 321.125 170.730469 320.289062 170.597656 C 319.453125 170.46875 318.617188 170.363281 317.773438 170.28125 C 316.933594 170.199219 316.089844 170.148438 315.242188 170.117188 C 314.398438 170.089844 313.554688 170.085938 312.710938 170.109375 C 311.863281 170.132812 311.019531 170.183594 310.175781 170.257812 C 309.335938 170.335938 308.496094 170.433594 307.660156 170.5625 C 306.824219 170.6875 305.996094 170.839844 305.167969 171.015625 C 304.339844 171.195312 303.519531 171.398438 302.707031 171.625 C 301.890625 171.851562 301.085938 172.105469 300.285156 172.382812 C 299.488281 172.660156 298.699219 172.960938 297.921875 173.285156 C 294.648438 136.234375 263.480469 107.15625 225.460938 107.15625 C 216.164062 107.15625 207.09375 108.988281 199.085938 112.082031 M 182.148438 121.320312 L 180.28125 213.949219 L 182.148438 247.578125 C 182.214844 250.03125 184.21875 252.054688 186.691406 252.054688 C 186.988281 252.050781 187.28125 252.019531 187.570312 251.960938 C 187.863281 251.902344 188.144531 251.816406 188.417969 251.699219 C 188.691406 251.585938 188.953125 251.445312 189.199219 251.28125 C 189.445312 251.117188 189.671875 250.929688 189.882812 250.722656 C 190.09375 250.511719 190.28125 250.285156 190.445312 250.039062 C 190.613281 249.796875 190.753906 249.535156 190.867188 249.265625 C 190.984375 248.992188 191.070312 248.710938 191.132812 248.421875 C 191.195312 248.132812 191.226562 247.839844 191.230469 247.542969 L 191.230469 247.578125 L 193.257812 213.949219 L 191.230469 121.3125 C 191.164062 118.832031 189.160156 116.808594 186.691406 116.808594 C 186.394531 116.8125 186.101562 116.84375 185.808594 116.902344 C 185.519531 116.960938 185.234375 117.046875 184.960938 117.164062 C 184.6875 117.277344 184.425781 117.417969 184.179688 117.582031 C 183.933594 117.746094 183.703125 117.933594 183.492188 118.144531 C 183.28125 118.355469 183.09375 118.582031 182.929688 118.828125 C 182.761719 119.074219 182.621094 119.332031 182.507812 119.605469 C 182.390625 119.878906 182.304688 120.160156 182.246094 120.453125 C 182.183594 120.742188 182.152344 121.035156 182.148438 121.332031 M 168.351562 129.023438 L 166.753906 213.925781 C 166.753906 213.988281 168.351562 248.058594 168.351562 248.058594 C 168.363281 248.617188 168.484375 249.152344 168.703125 249.660156 C 168.925781 250.171875 169.234375 250.625 169.628906 251.015625 C 170.027344 251.410156 170.480469 251.710938 170.996094 251.929688 C 171.511719 252.144531 172.046875 252.253906 172.609375 252.265625 C 173.167969 252.253906 173.707031 252.144531 174.222656 251.925781 C 174.738281 251.707031 175.195312 251.402344 175.589844 251.007812 C 175.988281 250.617188 176.296875 250.160156 176.515625 249.648438 C 176.738281 249.132812 176.851562 248.597656 176.863281 248.039062 L 176.863281 248.058594 L 176.863281 248.039062 L 178.65625 213.957031 L 176.863281 129.011719 C 176.851562 128.453125 176.734375 127.917969 176.515625 127.40625 C 176.292969 126.894531 175.984375 126.441406 175.589844 126.046875 C 175.191406 125.652344 174.734375 125.347656 174.21875 125.132812 C 173.703125 124.914062 173.167969 124.800781 172.609375 124.792969 C 170.300781 124.792969 168.398438 126.753906 168.351562 129.019531 M 127.097656 137.917969 L 124.992188 213.917969 L 127.105469 248.816406 C 127.171875 250.683594 128.644531 252.160156 130.496094 252.160156 C 132.351562 252.160156 133.835938 250.675781 133.902344 248.804688 L 133.902344 248.785156 L 136.28125 213.917969 L 133.902344 137.917969 C 133.835938 135.957031 132.351562 134.546875 130.496094 134.546875 C 130.046875 134.550781 129.617188 134.636719 129.203125 134.808594 C 128.785156 134.976562 128.421875 135.21875 128.101562 135.535156 C 127.785156 135.851562 127.539062 136.214844 127.363281 136.628906 C 127.191406 137.039062 127.101562 137.46875 127.097656 137.917969 M 140.738281 139.863281 L 138.800781 213.929688 L 140.742188 248.488281 C 140.808594 250.515625 142.40625 252.132812 144.429688 252.132812 C 146.453125 252.132812 148.050781 250.519531 148.109375 248.476562 L 148.109375 248.496094 L 150.292969 213.929688 L 148.109375 139.863281 C 148.042969 137.8125 146.441406 136.207031 144.429688 136.207031 C 142.421875 136.207031 140.78125 137.820312 140.738281 139.863281 M 113.5625 140.386719 L 111.273438 213.917969 L 113.5625 249.027344 C 113.574219 249.433594 113.660156 249.820312 113.820312 250.195312 C 113.980469 250.570312 114.207031 250.898438 114.496094 251.183594 C 114.789062 251.46875 115.121094 251.691406 115.496094 251.847656 C 115.875 252.003906 116.265625 252.082031 116.675781 252.085938 C 117.082031 252.082031 117.476562 252.003906 117.855469 251.84375 C 118.230469 251.6875 118.566406 251.464844 118.855469 251.179688 C 119.144531 250.890625 119.371094 250.5625 119.53125 250.1875 C 119.691406 249.8125 119.777344 249.421875 119.785156 249.011719 L 122.355469 213.917969 L 119.785156 140.378906 C 119.71875 138.65625 118.34375 137.308594 116.675781 137.308594 C 116.265625 137.3125 115.871094 137.394531 115.492188 137.554688 C 115.117188 137.710938 114.78125 137.933594 114.492188 138.222656 C 114.199219 138.507812 113.976562 138.839844 113.816406 139.214844 C 113.652344 139.59375 113.570312 139.984375 113.5625 140.390625 M 154.488281 142.574219 L 152.71875 213.9375 L 154.488281 248.28125 C 154.554688 250.46875 156.28125 252.199219 158.464844 252.199219 C 160.644531 252.199219 162.378906 250.476562 162.425781 248.261719 L 162.425781 248.289062 L 164.414062 213.945312 L 162.425781 142.578125 C 162.417969 142.058594 162.316406 141.554688 162.113281 141.074219 C 161.910156 140.59375 161.621094 140.167969 161.25 139.800781 C 160.882812 139.429688 160.453125 139.144531 159.972656 138.945312 C 159.488281 138.742188 158.988281 138.640625 158.464844 138.636719 C 156.28125 138.636719 154.535156 140.371094 154.488281 142.578125 M 100.140625 146.039062 C 100.140625 146.046875 97.691406 213.90625 97.691406 213.90625 L 100.140625 249.378906 C 100.207031 250.933594 101.449219 252.160156 102.96875 252.160156 C 103.339844 252.152344 103.695312 252.078125 104.035156 251.933594 C 104.378906 251.792969 104.679688 251.589844 104.945312 251.332031 C 105.207031 251.070312 105.410156 250.773438 105.558594 250.433594 C 105.707031 250.09375 105.785156 249.742188 105.796875 249.371094 L 108.566406 213.90625 L 105.796875 146.039062 C 105.785156 145.671875 105.707031 145.316406 105.558594 144.980469 C 105.410156 144.640625 105.207031 144.339844 104.945312 144.082031 C 104.679688 143.820312 104.378906 143.621094 104.035156 143.476562 C 103.695312 143.332031 103.339844 143.257812 102.96875 143.25 C 101.449219 143.25 100.21875 144.480469 100.140625 146.039062 M 86.820312 158.667969 L 84.203125 213.90625 L 86.820312 249.59375 C 86.886719 250.992188 88 252.089844 89.355469 252.089844 C 90.710938 252.089844 91.816406 250.992188 91.894531 249.585938 L 94.863281 213.890625 L 91.894531 158.65625 C 91.8125 157.257812 90.699219 156.148438 89.355469 156.148438 C 88.011719 156.148438 86.886719 157.257812 86.820312 158.65625 M 60.511719 177.28125 L 57.554688 213.878906 L 60.511719 249.28125 C 60.597656 250.378906 61.441406 251.199219 62.476562 251.199219 C 63.511719 251.199219 64.351562 250.378906 64.441406 249.28125 L 67.796875 213.878906 L 64.441406 177.269531 C 64.34375 176.179688 63.507812 175.351562 62.476562 175.351562 C 61.449219 175.351562 60.59375 176.1875 60.511719 177.28125 M 47.523438 178.25 C 47.523438 178.253906 44.390625 213.871094 44.390625 213.871094 L 47.523438 248.191406 C 47.621094 249.148438 48.320312 249.835938 49.203125 249.835938 C 50.089844 249.835938 50.777344 249.152344 50.878906 248.203125 L 54.4375 213.878906 L 50.886719 178.253906 C 50.78125 177.308594 50.074219 176.625 49.203125 176.625 C 48.335938 176.625 47.613281 177.320312 47.523438 178.253906 M 73.617188 179.941406 L 70.832031 213.890625 L 73.617188 249.585938 C 73.625 249.882812 73.6875 250.164062 73.804688 250.433594 C 73.921875 250.703125 74.085938 250.941406 74.292969 251.148438 C 74.503906 251.355469 74.746094 251.515625 75.019531 251.628906 C 75.289062 251.742188 75.574219 251.800781 75.867188 251.808594 C 77.058594 251.808594 78.027344 250.855469 78.121094 249.585938 L 81.289062 213.886719 L 78.121094 179.921875 C 78.019531 178.679688 77.070312 177.726562 75.867188 177.726562 C 74.664062 177.726562 73.691406 178.671875 73.617188 179.945312 M 34.636719 183.863281 C 34.636719 183.871094 31.335938 213.878906 31.335938 213.878906 L 34.636719 243.242188 C 34.734375 244.023438 35.324219 244.59375 36.039062 244.59375 C 36.75 244.59375 37.3125 244.042969 37.425781 243.246094 L 41.171875 213.878906 L 37.425781 183.863281 C 37.292969 183.066406 36.730469 182.511719 36.03125 182.511719 C 35.328125 182.511719 34.722656 183.082031 34.628906 183.863281 M 22.285156 195.316406 L 19.835938 213.878906 L 22.285156 232.128906 C 22.386719 232.898438 22.941406 233.433594 23.636719 233.433594 C 24.332031 233.433594 24.867188 232.898438 24.972656 232.128906 L 27.878906 213.871094 L 24.972656 195.304688 C 24.875 194.539062 24.316406 193.996094 23.636719 193.996094 C 22.953125 193.996094 22.378906 194.53125 22.285156 195.304688 " clip-rule="nonzero"/></clipPath><linearGradient x1="2041.4" gradientTransform="matrix(6.547851, 0, 0, -6.529246, -12806.923488, 4788.386065)" y1="716.96306" x2="2041.4" gradientUnits="userSpaceOnUse" y2="694.728079" id="id3"><stop stop-opacity="1" stop-color="rgb(47.697449%, 20.428467%, 62.379456%)" offset="0"/><stop stop-opacity="1" stop-color="rgb(47.634888%, 20.41626%, 62.245178%)" offset="0.015625"/><stop stop-opacity="1" stop-color="rgb(47.509766%, 20.391846%, 61.979675%)" offset="0.03125"/><stop stop-opacity="1" stop-color="rgb(47.386169%, 20.367432%, 61.712646%)" offset="0.046875"/><stop stop-opacity="1" stop-color="rgb(47.262573%, 20.343018%, 61.447144%)" offset="0.0625"/><stop stop-opacity="1" stop-color="rgb(47.138977%, 20.318604%, 61.180115%)" offset="0.078125"/><stop stop-opacity="1" stop-color="rgb(47.015381%, 20.295715%, 60.913086%)" offset="0.09375"/><stop stop-opacity="1" stop-color="rgb(46.891785%, 20.271301%, 60.647583%)" offset="0.109375"/><stop stop-opacity="1" stop-color="rgb(46.768188%, 20.246887%, 60.380554%)" offset="0.125"/><stop stop-opacity="1" stop-color="rgb(46.644592%, 20.222473%, 60.115051%)" offset="0.140625"/><stop stop-opacity="1" stop-color="rgb(46.520996%, 20.198059%, 59.848022%)" offset="0.15625"/><stop stop-opacity="1" stop-color="rgb(46.395874%, 20.173645%, 59.580994%)" offset="0.171875"/><stop stop-opacity="1" stop-color="rgb(46.272278%, 20.150757%, 59.315491%)" offset="0.1875"/><stop stop-opacity="1" stop-color="rgb(46.148682%, 20.126343%, 59.048462%)" offset="0.203125"/><stop stop-opacity="1" stop-color="rgb(46.025085%, 20.101929%, 58.781433%)" offset="0.21875"/><stop stop-opacity="1" stop-color="rgb(45.901489%, 20.077515%, 58.51593%)" offset="0.234375"/><stop stop-opacity="1" stop-color="rgb(45.777893%, 20.053101%, 58.248901%)" offset="0.25"/><stop stop-opacity="1" stop-color="rgb(45.654297%, 20.028687%, 57.983398%)" offset="0.265625"/><stop stop-opacity="1" stop-color="rgb(45.530701%, 20.005798%, 57.71637%)" offset="0.28125"/><stop stop-opacity="1" stop-color="rgb(45.405579%, 19.981384%, 57.449341%)" offset="0.296875"/><stop stop-opacity="1" stop-color="rgb(45.281982%, 19.95697%, 57.183838%)" offset="0.3125"/><stop stop-opacity="1" stop-color="rgb(45.158386%, 19.932556%, 56.916809%)" offset="0.328125"/><stop stop-opacity="1" stop-color="rgb(45.03479%, 19.908142%, 56.651306%)" offset="0.34375"/><stop stop-opacity="1" stop-color="rgb(44.911194%, 19.883728%, 56.384277%)" offset="0.359375"/><stop stop-opacity="1" stop-color="rgb(44.787598%, 19.86084%, 56.117249%)" offset="0.375"/><stop stop-opacity="1" stop-color="rgb(44.664001%, 19.836426%, 55.851746%)" offset="0.390625"/><stop stop-opacity="1" stop-color="rgb(44.540405%, 19.812012%, 55.584717%)" offset="0.40625"/><stop stop-opacity="1" stop-color="rgb(44.415283%, 19.787598%, 55.319214%)" offset="0.421875"/><stop stop-opacity="1" stop-color="rgb(44.291687%, 19.763184%, 55.052185%)" offset="0.4375"/><stop stop-opacity="1" stop-color="rgb(44.168091%, 19.740295%, 54.785156%)" offset="0.453125"/><stop stop-opacity="1" stop-color="rgb(44.044495%, 19.715881%, 54.519653%)" offset="0.46875"/><stop stop-opacity="1" stop-color="rgb(43.920898%, 19.691467%, 54.252625%)" offset="0.484375"/><stop stop-opacity="1" stop-color="rgb(43.797302%, 19.667053%, 53.985596%)" offset="0.5"/><stop stop-opacity="1" stop-color="rgb(43.673706%, 19.642639%, 53.720093%)" offset="0.515625"/><stop stop-opacity="1" stop-color="rgb(43.55011%, 19.618225%, 53.453064%)" offset="0.53125"/><stop stop-opacity="1" stop-color="rgb(43.424988%, 19.595337%, 53.187561%)" offset="0.546875"/><stop stop-opacity="1" stop-color="rgb(43.301392%, 19.570923%, 52.920532%)" offset="0.5625"/><stop stop-opacity="1" stop-color="rgb(43.177795%, 19.546509%, 52.653503%)" offset="0.578125"/><stop stop-opacity="1" stop-color="rgb(43.054199%, 19.522095%, 52.388%)" offset="0.59375"/><stop stop-opacity="1" stop-color="rgb(42.930603%, 19.497681%, 52.120972%)" offset="0.609375"/><stop stop-opacity="1" stop-color="rgb(42.807007%, 19.473267%, 51.855469%)" offset="0.625"/><stop stop-opacity="1" stop-color="rgb(42.683411%, 19.450378%, 51.58844%)" offset="0.640625"/><stop stop-opacity="1" stop-color="rgb(42.559814%, 19.425964%, 51.321411%)" offset="0.65625"/><stop stop-opacity="1" stop-color="rgb(42.434692%, 19.40155%, 51.055908%)" offset="0.671875"/><stop stop-opacity="1" stop-color="rgb(42.311096%, 19.377136%, 50.788879%)" offset="0.6875"/><stop stop-opacity="1" stop-color="rgb(42.1875%, 19.352722%, 50.523376%)" offset="0.703125"/><stop stop-opacity="1" stop-color="rgb(42.063904%, 19.328308%, 50.256348%)" offset="0.71875"/><stop stop-opacity="1" stop-color="rgb(41.940308%, 19.30542%, 49.989319%)" offset="0.734375"/><stop stop-opacity="1" stop-color="rgb(41.816711%, 19.281006%, 49.723816%)" offset="0.75"/><stop stop-opacity="1" stop-color="rgb(41.693115%, 19.256592%, 49.456787%)" offset="0.765625"/><stop stop-opacity="1" stop-color="rgb(41.569519%, 19.232178%, 49.189758%)" offset="0.78125"/><stop stop-opacity="1" stop-color="rgb(41.444397%, 19.207764%, 48.924255%)" offset="0.796875"/><stop stop-opacity="1" stop-color="rgb(41.320801%, 19.18335%, 48.657227%)" offset="0.8125"/><stop stop-opacity="1" stop-color="rgb(41.197205%, 19.160461%, 48.391724%)" offset="0.828125"/><stop stop-opacity="1" stop-color="rgb(41.073608%, 19.136047%, 48.124695%)" offset="0.84375"/><stop stop-opacity="1" stop-color="rgb(40.950012%, 19.111633%, 47.857666%)" offset="0.859375"/><stop stop-opacity="1" stop-color="rgb(40.826416%, 19.087219%, 47.592163%)" offset="0.875"/><stop stop-opacity="1" stop-color="rgb(40.70282%, 19.062805%, 47.325134%)" offset="0.890625"/><stop stop-opacity="1" stop-color="rgb(40.579224%, 19.038391%, 47.059631%)" offset="0.90625"/><stop stop-opacity="1" stop-color="rgb(40.455627%, 19.015503%, 46.792603%)" offset="0.921875"/><stop stop-opacity="1" stop-color="rgb(40.330505%, 18.991089%, 46.525574%)" offset="0.9375"/><stop stop-opacity="1" stop-color="rgb(40.206909%, 18.966675%, 46.260071%)" offset="0.953125"/><stop stop-opacity="1" stop-color="rgb(40.083313%, 18.942261%, 45.993042%)" offset="0.96875"/><stop stop-opacity="1" stop-color="rgb(39.959717%, 18.917847%, 45.727539%)" offset="0.984375"/><stop stop-opacity="1" stop-color="rgb(39.836121%, 18.894958%, 45.46051%)" offset="1"/></linearGradient></defs><g clip-path="url(#id1)"><g clip-path="url(#id2)"><path fill="url(#id3)" d="M 20.054688 252.335938 L 20.054688 107.15625 L 355.105469 107.15625 L 355.105469 252.335938 Z M 20.054688 252.335938 " fill-rule="nonzero"/></g></g></svg>