<svg xmlns="http://www.w3.org/2000/svg" xmlns:xlink="http://www.w3.org/1999/xlink" width="500" zoomAndPan="magnify" viewBox="0 0 375 374.999991" height="500" preserveAspectRatio="xMidYMid meet" version="1.0"><defs><clipPath id="id1"><path d="M 5.496094 98 L 369.246094 98 L 369.246094 256.621094 L 5.496094 256.621094 Z M 5.496094 98 " clip-rule="nonzero"/></clipPath><clipPath id="id2"><path d="M 199.730469 103.5625 C 196.359375 104.863281 195.457031 106.210938 195.425781 108.816406 L 195.425781 250.703125 C 195.5 253.433594 197.585938 255.714844 200.257812 255.984375 C 200.371094 255.992188 323.484375 256.054688 324.28125 256.054688 C 325.746094 256.054688 327.207031 255.984375 328.667969 255.839844 C 330.125 255.695312 331.574219 255.480469 333.011719 255.195312 C 334.449219 254.910156 335.867188 254.554688 337.269531 254.128906 C 338.671875 253.703125 340.046875 253.210938 341.402344 252.648438 C 342.753906 252.089844 344.078125 251.464844 345.371094 250.773438 C 346.664062 250.082031 347.917969 249.332031 349.136719 248.515625 C 350.355469 247.703125 351.53125 246.832031 352.664062 245.902344 C 353.796875 244.972656 354.882812 243.992188 355.914062 242.957031 C 356.953125 241.921875 357.933594 240.839844 358.863281 239.707031 C 359.792969 238.574219 360.664062 237.402344 361.480469 236.183594 C 362.292969 234.964844 363.046875 233.710938 363.738281 232.421875 C 364.429688 231.128906 365.054688 229.808594 365.613281 228.457031 C 366.175781 227.101562 366.667969 225.726562 367.09375 224.324219 C 367.519531 222.925781 367.875 221.503906 368.164062 220.070312 C 368.449219 218.632812 368.664062 217.1875 368.808594 215.730469 C 368.953125 214.273438 369.023438 212.8125 369.027344 211.347656 C 369.023438 210.433594 368.996094 209.515625 368.9375 208.601562 C 368.882812 207.6875 368.796875 206.773438 368.6875 205.863281 C 368.574219 204.953125 368.433594 204.050781 368.265625 203.148438 C 368.09375 202.246094 367.898438 201.351562 367.675781 200.464844 C 367.453125 199.574219 367.203125 198.695312 366.921875 197.820312 C 366.644531 196.945312 366.339844 196.082031 366.011719 195.226562 C 365.679688 194.371094 365.324219 193.527344 364.941406 192.695312 C 364.554688 191.863281 364.148438 191.042969 363.714844 190.234375 C 363.28125 189.425781 362.824219 188.632812 362.339844 187.855469 C 361.859375 187.074219 361.351562 186.308594 360.824219 185.5625 C 360.292969 184.8125 359.742188 184.082031 359.167969 183.367188 C 358.59375 182.652344 358 181.953125 357.382812 181.277344 C 356.765625 180.597656 356.128906 179.941406 355.46875 179.300781 C 354.8125 178.664062 354.136719 178.042969 353.441406 177.445312 C 352.742188 176.847656 352.03125 176.273438 351.296875 175.722656 C 350.566406 175.167969 349.820312 174.636719 349.058594 174.128906 C 348.292969 173.621094 347.515625 173.136719 346.71875 172.679688 C 345.925781 172.21875 345.121094 171.785156 344.300781 171.371094 C 343.476562 170.960938 342.644531 170.578125 341.800781 170.21875 C 340.957031 169.859375 340.105469 169.527344 339.242188 169.21875 C 338.378906 168.914062 337.503906 168.632812 336.621094 168.378906 C 335.738281 168.128906 334.851562 167.902344 333.957031 167.703125 C 333.058594 167.503906 332.15625 167.335938 331.253906 167.191406 C 330.347656 167.046875 329.4375 166.933594 328.523438 166.847656 C 327.613281 166.757812 326.695312 166.699219 325.777344 166.667969 C 324.863281 166.636719 323.945312 166.636719 323.027344 166.660156 C 322.109375 166.6875 321.195312 166.738281 320.28125 166.820312 C 319.367188 166.902344 318.457031 167.011719 317.550781 167.148438 C 316.644531 167.289062 315.742188 167.453125 314.84375 167.644531 C 313.949219 167.839844 313.058594 168.058594 312.175781 168.308594 C 311.292969 168.554688 310.414062 168.828125 309.550781 169.128906 C 308.683594 169.429688 307.828125 169.757812 306.980469 170.113281 C 303.429688 129.828125 269.613281 98.21875 228.363281 98.21875 C 218.273438 98.21875 208.433594 100.207031 199.746094 103.570312 M 181.367188 113.617188 L 179.34375 214.324219 L 181.367188 250.878906 C 181.4375 253.550781 183.613281 255.75 186.296875 255.75 C 186.621094 255.746094 186.9375 255.710938 187.253906 255.648438 C 187.570312 255.582031 187.875 255.488281 188.171875 255.363281 C 188.46875 255.238281 188.75 255.089844 189.019531 254.910156 C 189.285156 254.730469 189.53125 254.527344 189.761719 254.300781 C 189.988281 254.074219 190.191406 253.828125 190.371094 253.558594 C 190.550781 253.292969 190.703125 253.011719 190.832031 252.714844 C 190.957031 252.421875 191.050781 252.113281 191.117188 251.800781 C 191.183594 251.484375 191.21875 251.167969 191.222656 250.84375 L 191.222656 250.878906 L 193.425781 214.324219 L 191.222656 113.609375 C 191.148438 110.910156 188.976562 108.710938 186.296875 108.710938 C 185.976562 108.714844 185.65625 108.746094 185.339844 108.8125 C 185.023438 108.875 184.71875 108.972656 184.421875 109.097656 C 184.121094 109.222656 183.839844 109.371094 183.574219 109.550781 C 183.304688 109.730469 183.054688 109.9375 182.828125 110.164062 C 182.597656 110.390625 182.394531 110.636719 182.214844 110.90625 C 182.035156 111.171875 181.882812 111.457031 181.757812 111.753906 C 181.632812 112.050781 181.539062 112.355469 181.472656 112.671875 C 181.40625 112.988281 181.371094 113.308594 181.367188 113.628906 M 166.398438 121.992188 L 164.664062 214.292969 C 164.664062 214.367188 166.398438 251.40625 166.398438 251.40625 C 166.40625 251.707031 166.441406 252.003906 166.503906 252.296875 C 166.570312 252.589844 166.660156 252.871094 166.78125 253.148438 C 166.898438 253.421875 167.042969 253.683594 167.210938 253.933594 C 167.378906 254.179688 167.574219 254.410156 167.785156 254.621094 C 168 254.832031 168.230469 255.019531 168.480469 255.1875 C 168.726562 255.355469 168.992188 255.496094 169.269531 255.613281 C 169.546875 255.726562 169.832031 255.816406 170.125 255.878906 C 170.417969 255.941406 170.714844 255.972656 171.015625 255.976562 C 171.316406 255.972656 171.613281 255.9375 171.910156 255.878906 C 172.203125 255.816406 172.488281 255.726562 172.769531 255.609375 C 173.046875 255.492188 173.308594 255.351562 173.558594 255.183594 C 173.808594 255.015625 174.039062 254.824219 174.253906 254.613281 C 174.46875 254.402344 174.65625 254.171875 174.824219 253.921875 C 174.996094 253.671875 175.140625 253.410156 175.257812 253.132812 C 175.375 252.855469 175.46875 252.570312 175.53125 252.277344 C 175.59375 251.980469 175.628906 251.683594 175.632812 251.382812 L 175.632812 251.40625 L 175.632812 251.382812 L 177.582031 214.332031 L 175.632812 121.976562 C 175.628906 121.679688 175.59375 121.378906 175.53125 121.085938 C 175.464844 120.792969 175.375 120.507812 175.257812 120.230469 C 175.136719 119.957031 174.996094 119.695312 174.824219 119.445312 C 174.65625 119.195312 174.464844 118.964844 174.253906 118.753906 C 174.039062 118.542969 173.808594 118.351562 173.558594 118.183594 C 173.304688 118.019531 173.042969 117.875 172.765625 117.761719 C 172.488281 117.644531 172.203125 117.554688 171.90625 117.492188 C 171.613281 117.429688 171.316406 117.398438 171.015625 117.390625 C 168.515625 117.390625 166.449219 119.523438 166.398438 121.984375 M 121.640625 131.660156 L 119.351562 214.289062 L 121.648438 252.230469 C 121.71875 254.257812 123.316406 255.863281 125.328125 255.863281 C 127.335938 255.863281 128.949219 254.253906 129.019531 252.214844 L 129.019531 252.195312 L 131.601562 214.289062 L 129.019531 131.660156 C 128.949219 129.53125 127.335938 127.996094 125.328125 127.996094 C 124.839844 128 124.371094 128.09375 123.921875 128.277344 C 123.46875 128.464844 123.074219 128.726562 122.726562 129.070312 C 122.382812 129.414062 122.117188 129.808594 121.925781 130.257812 C 121.738281 130.707031 121.640625 131.175781 121.640625 131.660156 M 136.4375 133.777344 L 134.335938 214.300781 L 136.445312 251.875 C 136.515625 254.074219 138.25 255.835938 140.445312 255.835938 C 142.640625 255.835938 144.371094 254.082031 144.4375 251.859375 L 144.4375 251.882812 L 146.804688 214.300781 L 144.4375 133.777344 C 144.367188 131.546875 142.625 129.800781 140.445312 129.800781 C 138.261719 129.800781 136.488281 131.554688 136.4375 133.777344 M 106.953125 134.34375 L 104.46875 214.289062 L 106.953125 252.457031 C 106.964844 252.898438 107.058594 253.320312 107.230469 253.726562 C 107.40625 254.132812 107.652344 254.492188 107.964844 254.800781 C 108.28125 255.113281 108.644531 255.355469 109.050781 255.523438 C 109.460938 255.695312 109.886719 255.78125 110.328125 255.785156 C 110.773438 255.78125 111.199219 255.691406 111.609375 255.523438 C 112.015625 255.351562 112.378906 255.109375 112.695312 254.796875 C 113.011719 254.484375 113.253906 254.125 113.429688 253.71875 C 113.605469 253.308594 113.695312 252.886719 113.703125 252.441406 L 116.492188 214.289062 L 113.703125 134.335938 C 113.632812 132.460938 112.140625 131 110.328125 131 C 109.882812 131.003906 109.457031 131.09375 109.046875 131.265625 C 108.636719 131.4375 108.277344 131.679688 107.960938 131.992188 C 107.644531 132.304688 107.398438 132.664062 107.226562 133.074219 C 107.050781 133.480469 106.960938 133.90625 106.953125 134.351562 M 151.355469 136.722656 L 149.4375 214.308594 L 151.355469 251.648438 C 151.429688 254.023438 153.304688 255.90625 155.667969 255.90625 C 158.035156 255.90625 159.917969 254.03125 159.96875 251.625 L 159.96875 251.652344 L 162.125 214.316406 L 159.96875 136.730469 C 159.964844 136.449219 159.933594 136.171875 159.878906 135.894531 C 159.820312 135.621094 159.738281 135.351562 159.628906 135.09375 C 159.519531 134.835938 159.386719 134.589844 159.230469 134.355469 C 159.074219 134.121094 158.894531 133.90625 158.695312 133.707031 C 158.496094 133.507812 158.28125 133.332031 158.046875 133.175781 C 157.8125 133.019531 157.566406 132.886719 157.308594 132.777344 C 157.046875 132.667969 156.777344 132.585938 156.503906 132.53125 C 156.230469 132.472656 155.949219 132.445312 155.667969 132.441406 C 153.304688 132.441406 151.40625 134.328125 151.355469 136.730469 M 92.390625 140.492188 C 92.390625 140.496094 89.730469 214.273438 89.730469 214.273438 L 92.390625 252.839844 C 92.460938 254.527344 93.808594 255.863281 95.457031 255.863281 C 95.859375 255.855469 96.246094 255.777344 96.617188 255.621094 C 96.988281 255.464844 97.316406 255.246094 97.601562 254.960938 C 97.886719 254.679688 98.109375 254.355469 98.269531 253.988281 C 98.429688 253.621094 98.515625 253.234375 98.527344 252.832031 L 101.53125 214.273438 L 98.527344 140.492188 C 98.515625 140.089844 98.429688 139.703125 98.269531 139.335938 C 98.109375 138.96875 97.886719 138.644531 97.601562 138.363281 C 97.316406 138.078125 96.988281 137.859375 96.617188 137.703125 C 96.246094 137.546875 95.859375 137.46875 95.457031 137.460938 C 93.808594 137.460938 92.472656 138.792969 92.390625 140.492188 M 77.9375 154.21875 L 75.097656 214.273438 L 77.9375 253.074219 C 78.007812 254.59375 79.21875 255.785156 80.6875 255.785156 C 82.15625 255.785156 83.359375 254.59375 83.441406 253.066406 L 86.660156 214.257812 L 83.441406 154.207031 C 83.351562 152.6875 82.144531 151.480469 80.6875 151.480469 C 79.230469 151.480469 78.007812 152.6875 77.9375 154.207031 M 49.394531 174.457031 L 46.179688 214.246094 L 49.394531 252.734375 C 49.484375 253.925781 50.402344 254.820312 51.523438 254.820312 C 52.648438 254.820312 53.558594 253.925781 53.65625 252.734375 L 57.292969 214.246094 L 53.65625 174.445312 C 53.550781 173.257812 52.640625 172.355469 51.523438 172.355469 C 50.40625 172.355469 49.480469 173.265625 49.394531 174.457031 M 35.296875 175.507812 C 35.296875 175.515625 31.902344 214.238281 31.902344 214.238281 L 35.296875 251.546875 C 35.402344 252.589844 36.164062 253.335938 37.121094 253.335938 C 38.082031 253.335938 38.828125 252.59375 38.941406 251.5625 L 42.800781 214.246094 L 38.949219 175.515625 C 38.835938 174.488281 38.066406 173.742188 37.121094 173.742188 C 36.179688 173.742188 35.394531 174.5 35.296875 175.515625 M 63.609375 177.347656 L 60.589844 214.257812 L 63.609375 253.066406 C 63.617188 253.386719 63.6875 253.691406 63.8125 253.984375 C 63.941406 254.277344 64.117188 254.539062 64.34375 254.761719 C 64.574219 254.988281 64.835938 255.164062 65.132812 255.285156 C 65.425781 255.410156 65.734375 255.476562 66.054688 255.480469 C 67.347656 255.480469 68.398438 254.445312 68.496094 253.066406 L 71.933594 214.253906 L 68.496094 177.324219 C 68.390625 175.976562 67.359375 174.941406 66.054688 174.941406 C 64.746094 174.941406 63.691406 175.96875 63.609375 177.355469 M 21.316406 181.613281 C 21.316406 181.621094 17.734375 214.246094 17.734375 214.246094 L 21.316406 246.167969 C 21.421875 247.019531 22.0625 247.636719 22.835938 247.636719 C 23.609375 247.636719 24.222656 247.039062 24.34375 246.175781 L 28.40625 214.246094 L 24.34375 181.613281 C 24.199219 180.746094 23.589844 180.144531 22.828125 180.144531 C 22.066406 180.144531 21.40625 180.761719 21.308594 181.613281 M 7.917969 194.0625 L 5.257812 214.246094 L 7.917969 234.085938 C 8.023438 234.921875 8.628906 235.503906 9.378906 235.503906 C 10.132812 235.503906 10.714844 234.921875 10.828125 234.085938 L 13.984375 214.238281 L 10.828125 194.050781 C 10.722656 193.21875 10.117188 192.628906 9.378906 192.628906 C 8.640625 192.628906 8.015625 193.210938 7.917969 194.050781 " clip-rule="nonzero"/></clipPath><linearGradient x1="2041.4" gradientTransform="matrix(7.104492, 0, 0, -7.09854, -13911.919562, 5187.609655)" y1="716.962996" x2="2041.4" gradientUnits="userSpaceOnUse" y2="694.728017" id="id3"><stop stop-opacity="1" stop-color="rgb(96.717834%, 52.592468%, 11.734009%)" offset="0"/><stop stop-opacity="1" stop-color="rgb(96.704102%, 52.479553%, 11.74469%)" offset="0.015625"/><stop stop-opacity="1" stop-color="rgb(96.678162%, 52.255249%, 11.769104%)" offset="0.03125"/><stop stop-opacity="1" stop-color="rgb(96.652222%, 52.029419%, 11.791992%)" offset="0.046875"/><stop stop-opacity="1" stop-color="rgb(96.624756%, 51.805115%, 11.81488%)" offset="0.0625"/><stop stop-opacity="1" stop-color="rgb(96.598816%, 51.579285%, 11.839294%)" offset="0.078125"/><stop stop-opacity="1" stop-color="rgb(96.572876%, 51.35498%, 11.862183%)" offset="0.09375"/><stop stop-opacity="1" stop-color="rgb(96.54541%, 51.130676%, 11.885071%)" offset="0.109375"/><stop stop-opacity="1" stop-color="rgb(96.51947%, 50.904846%, 11.909485%)" offset="0.125"/><stop stop-opacity="1" stop-color="rgb(96.49353%, 50.680542%, 11.932373%)" offset="0.140625"/><stop stop-opacity="1" stop-color="rgb(96.466064%, 50.454712%, 11.955261%)" offset="0.15625"/><stop stop-opacity="1" stop-color="rgb(96.440125%, 50.230408%, 11.979675%)" offset="0.171875"/><stop stop-opacity="1" stop-color="rgb(96.414185%, 50.006104%, 12.002563%)" offset="0.1875"/><stop stop-opacity="1" stop-color="rgb(96.388245%, 49.780273%, 12.025452%)" offset="0.203125"/><stop stop-opacity="1" stop-color="rgb(96.360779%, 49.555969%, 12.049866%)" offset="0.21875"/><stop stop-opacity="1" stop-color="rgb(96.334839%, 49.330139%, 12.072754%)" offset="0.234375"/><stop stop-opacity="1" stop-color="rgb(96.308899%, 49.105835%, 12.095642%)" offset="0.25"/><stop stop-opacity="1" stop-color="rgb(96.281433%, 48.880005%, 12.120056%)" offset="0.265625"/><stop stop-opacity="1" stop-color="rgb(96.255493%, 48.655701%, 12.142944%)" offset="0.28125"/><stop stop-opacity="1" stop-color="rgb(96.229553%, 48.431396%, 12.165833%)" offset="0.296875"/><stop stop-opacity="1" stop-color="rgb(96.202087%, 48.205566%, 12.190247%)" offset="0.3125"/><stop stop-opacity="1" stop-color="rgb(96.176147%, 47.981262%, 12.213135%)" offset="0.328125"/><stop stop-opacity="1" stop-color="rgb(96.150208%, 47.755432%, 12.236023%)" offset="0.34375"/><stop stop-opacity="1" stop-color="rgb(96.122742%, 47.531128%, 12.260437%)" offset="0.359375"/><stop stop-opacity="1" stop-color="rgb(96.096802%, 47.306824%, 12.283325%)" offset="0.375"/><stop stop-opacity="1" stop-color="rgb(96.070862%, 47.080994%, 12.306213%)" offset="0.390625"/><stop stop-opacity="1" stop-color="rgb(96.043396%, 46.856689%, 12.330627%)" offset="0.40625"/><stop stop-opacity="1" stop-color="rgb(96.017456%, 46.630859%, 12.353516%)" offset="0.421875"/><stop stop-opacity="1" stop-color="rgb(95.991516%, 46.406555%, 12.376404%)" offset="0.4375"/><stop stop-opacity="1" stop-color="rgb(95.965576%, 46.182251%, 12.400818%)" offset="0.453125"/><stop stop-opacity="1" stop-color="rgb(95.93811%, 45.956421%, 12.423706%)" offset="0.46875"/><stop stop-opacity="1" stop-color="rgb(95.91217%, 45.732117%, 12.446594%)" offset="0.484375"/><stop stop-opacity="1" stop-color="rgb(95.88623%, 45.506287%, 12.471008%)" offset="0.5"/><stop stop-opacity="1" stop-color="rgb(95.858765%, 45.281982%, 12.493896%)" offset="0.515625"/><stop stop-opacity="1" stop-color="rgb(95.832825%, 45.057678%, 12.516785%)" offset="0.53125"/><stop stop-opacity="1" stop-color="rgb(95.806885%, 44.831848%, 12.541199%)" offset="0.546875"/><stop stop-opacity="1" stop-color="rgb(95.779419%, 44.607544%, 12.564087%)" offset="0.5625"/><stop stop-opacity="1" stop-color="rgb(95.753479%, 44.381714%, 12.586975%)" offset="0.578125"/><stop stop-opacity="1" stop-color="rgb(95.727539%, 44.15741%, 12.611389%)" offset="0.59375"/><stop stop-opacity="1" stop-color="rgb(95.700073%, 43.933105%, 12.634277%)" offset="0.609375"/><stop stop-opacity="1" stop-color="rgb(95.674133%, 43.707275%, 12.657166%)" offset="0.625"/><stop stop-opacity="1" stop-color="rgb(95.648193%, 43.482971%, 12.68158%)" offset="0.640625"/><stop stop-opacity="1" stop-color="rgb(95.620728%, 43.257141%, 12.704468%)" offset="0.65625"/><stop stop-opacity="1" stop-color="rgb(95.594788%, 43.032837%, 12.727356%)" offset="0.671875"/><stop stop-opacity="1" stop-color="rgb(95.568848%, 42.808533%, 12.75177%)" offset="0.6875"/><stop stop-opacity="1" stop-color="rgb(95.542908%, 42.582703%, 12.774658%)" offset="0.703125"/><stop stop-opacity="1" stop-color="rgb(95.515442%, 42.358398%, 12.797546%)" offset="0.71875"/><stop stop-opacity="1" stop-color="rgb(95.489502%, 42.132568%, 12.82196%)" offset="0.734375"/><stop stop-opacity="1" stop-color="rgb(95.463562%, 41.908264%, 12.844849%)" offset="0.75"/><stop stop-opacity="1" stop-color="rgb(95.436096%, 41.68396%, 12.867737%)" offset="0.765625"/><stop stop-opacity="1" stop-color="rgb(95.410156%, 41.45813%, 12.892151%)" offset="0.78125"/><stop stop-opacity="1" stop-color="rgb(95.384216%, 41.233826%, 12.915039%)" offset="0.796875"/><stop stop-opacity="1" stop-color="rgb(95.35675%, 41.007996%, 12.937927%)" offset="0.8125"/><stop stop-opacity="1" stop-color="rgb(95.330811%, 40.783691%, 12.962341%)" offset="0.828125"/><stop stop-opacity="1" stop-color="rgb(95.304871%, 40.557861%, 12.985229%)" offset="0.84375"/><stop stop-opacity="1" stop-color="rgb(95.277405%, 40.333557%, 13.008118%)" offset="0.859375"/><stop stop-opacity="1" stop-color="rgb(95.251465%, 40.109253%, 13.032532%)" offset="0.875"/><stop stop-opacity="1" stop-color="rgb(95.225525%, 39.883423%, 13.05542%)" offset="0.890625"/><stop stop-opacity="1" stop-color="rgb(95.198059%, 39.659119%, 13.078308%)" offset="0.90625"/><stop stop-opacity="1" stop-color="rgb(95.172119%, 39.433289%, 13.102722%)" offset="0.921875"/><stop stop-opacity="1" stop-color="rgb(95.146179%, 39.208984%, 13.12561%)" offset="0.9375"/><stop stop-opacity="1" stop-color="rgb(95.120239%, 38.98468%, 13.148499%)" offset="0.953125"/><stop stop-opacity="1" stop-color="rgb(95.092773%, 38.75885%, 13.172913%)" offset="0.96875"/><stop stop-opacity="1" stop-color="rgb(95.066833%, 38.534546%, 13.195801%)" offset="0.984375"/><stop stop-opacity="1" stop-color="rgb(95.040894%, 38.308716%, 13.218689%)" offset="1"/></linearGradient></defs><g clip-path="url(#id1)"><g clip-path="url(#id2)"><path fill="url(#id3)" d="M 5.496094 256.054688 L 5.496094 98.21875 L 369.027344 98.21875 L 369.027344 256.054688 Z M 5.496094 256.054688 " fill-rule="nonzero"/></g></g></svg>