<svg xmlns="http://www.w3.org/2000/svg" xmlns:xlink="http://www.w3.org/1999/xlink" width="500" zoomAndPan="magnify" viewBox="0 0 375 374.999991" height="500" preserveAspectRatio="xMidYMid meet" version="1.0"><defs><clipPath id="id1"><path d="M 34.34375 37.5 L 340.34375 37.5 L 340.34375 343.5 L 34.34375 343.5 Z M 34.34375 37.5 " clip-rule="nonzero"/></clipPath></defs><path fill="#5f2f66" d="M 276.421875 176.097656 C 275.324219 176.097656 274.210938 175.871094 273.148438 175.390625 C 238.128906 159.671875 200.75 151.703125 162.050781 151.703125 C 142.800781 151.703125 123.585938 153.726562 104.929688 157.71875 C 100.605469 158.644531 96.351562 155.886719 95.425781 151.5625 C 94.503906 147.242188 97.257812 142.984375 101.578125 142.0625 C 121.332031 137.835938 141.675781 135.691406 162.050781 135.691406 C 203.027344 135.691406 242.609375 144.132812 279.703125 160.785156 C 283.734375 162.597656 285.539062 167.332031 283.726562 171.367188 C 282.394531 174.335938 279.472656 176.097656 276.421875 176.097656 Z M 267.363281 208.476562 C 266.03125 211.441406 263.113281 213.199219 260.058594 213.199219 C 258.960938 213.199219 257.84375 212.96875 256.777344 212.492188 C 226.929688 199.050781 195.054688 192.242188 162.046875 192.242188 C 145.15625 192.242188 128.304688 194.070312 111.964844 197.679688 C 107.652344 198.640625 103.378906 195.910156 102.425781 191.59375 C 101.46875 187.277344 104.195312 183.003906 108.515625 182.050781 C 125.984375 178.191406 143.996094 176.234375 162.046875 176.234375 C 197.335938 176.234375 231.421875 183.519531 263.351562 197.894531 C 267.382812 199.707031 269.179688 204.445312 267.363281 208.476562 Z M 250.464844 246.789062 C 249.128906 249.746094 246.214844 251.5 243.167969 251.5 C 242.066406 251.5 240.945312 251.273438 239.878906 250.785156 C 215.363281 239.707031 189.179688 234.089844 162.046875 234.089844 C 147.605469 234.089844 133.214844 235.722656 119.277344 238.941406 C 114.972656 239.9375 110.671875 237.25 109.679688 232.941406 C 108.683594 228.636719 111.367188 224.335938 115.675781 223.34375 C 130.792969 219.851562 146.394531 218.082031 162.046875 218.082031 C 191.464844 218.082031 219.867188 224.175781 246.46875 236.199219 C 250.5 238.019531 252.289062 242.765625 250.464844 246.789062 Z M 187.347656 69.902344 C 120.847656 69.902344 66.75 124.003906 66.75 190.5 C 66.75 256.996094 120.847656 311.097656 187.347656 311.097656 C 253.84375 311.097656 307.945312 256.996094 307.945312 190.5 C 307.945312 124.003906 253.84375 69.902344 187.347656 69.902344 " fill-opacity="1" fill-rule="nonzero"/><g clip-path="url(#id1)"><path fill="#5f2f66" d="M 283.941406 287.09375 C 258.140625 312.898438 223.835938 327.109375 187.347656 327.109375 C 150.859375 327.109375 116.554688 312.898438 90.75 287.09375 C 64.949219 261.292969 50.738281 226.988281 50.738281 190.5 C 50.738281 154.007812 64.949219 119.703125 90.75 93.90625 C 116.550781 68.101562 150.859375 53.890625 187.347656 53.890625 C 223.835938 53.890625 258.140625 68.101562 283.941406 93.90625 C 309.746094 119.703125 323.953125 154.007812 323.953125 190.5 C 323.953125 226.988281 309.746094 261.292969 283.941406 287.09375 Z M 295.53125 82.316406 C 266.652344 53.410156 228.21875 37.5 187.34375 37.5 C 146.480469 37.5 108.058594 53.410156 79.15625 82.316406 C 50.257812 111.222656 34.34375 149.648438 34.34375 190.5 C 34.34375 231.351562 50.257812 269.777344 79.15625 298.683594 C 108.058594 327.589844 146.480469 343.5 187.34375 343.5 C 228.21875 343.5 266.652344 327.589844 295.53125 298.683594 C 324.433594 269.785156 340.34375 231.367188 340.34375 190.5 C 340.34375 149.632812 324.433594 111.214844 295.53125 82.316406 " fill-opacity="1" fill-rule="nonzero"/></g></svg>