<svg xmlns="http://www.w3.org/2000/svg" xmlns:xlink="http://www.w3.org/1999/xlink" width="500" zoomAndPan="magnify" viewBox="0 0 375 374.999991" height="500" preserveAspectRatio="xMidYMid meet" version="1.0"><defs><g/><clipPath id="id1"><path d="M 128 195 L 247 195 L 247 313.296875 L 128 313.296875 Z M 128 195 " clip-rule="nonzero"/></clipPath></defs><path fill="#f39143" d="M 187.457031 195.265625 C 185.222656 195.269531 183.074219 194.84375 181.011719 193.988281 C 178.949219 193.132812 177.128906 191.917969 175.550781 190.335938 L 133.453125 148.28125 C 133.0625 147.890625 132.695312 147.484375 132.34375 147.058594 C 131.996094 146.632812 131.667969 146.1875 131.359375 145.730469 C 131.054688 145.273438 130.769531 144.800781 130.511719 144.316406 C 130.25 143.828125 130.015625 143.332031 129.804688 142.824219 C 129.59375 142.3125 129.40625 141.796875 129.246094 141.269531 C 129.089844 140.742188 128.953125 140.207031 128.847656 139.667969 C 128.738281 139.128906 128.660156 138.582031 128.605469 138.035156 C 128.550781 137.488281 128.523438 136.9375 128.523438 136.386719 C 128.523438 135.835938 128.550781 135.285156 128.605469 134.738281 C 128.660156 134.191406 128.738281 133.644531 128.847656 133.105469 C 128.953125 132.566406 129.089844 132.03125 129.246094 131.503906 C 129.40625 130.976562 129.59375 130.460938 129.804688 129.949219 C 130.015625 129.441406 130.25 128.945312 130.511719 128.457031 C 130.769531 127.972656 131.054688 127.5 131.359375 127.042969 C 131.667969 126.585938 131.996094 126.144531 132.34375 125.71875 C 132.695312 125.292969 133.0625 124.882812 133.453125 124.492188 L 175.550781 82.4375 C 175.941406 82.050781 176.351562 81.679688 176.777344 81.332031 C 177.203125 80.980469 177.644531 80.652344 178.105469 80.347656 C 178.5625 80.042969 179.035156 79.757812 179.523438 79.5 C 180.007812 79.238281 180.503906 79.003906 181.015625 78.792969 C 181.523438 78.582031 182.042969 78.398438 182.570312 78.238281 C 183.097656 78.078125 183.632812 77.945312 184.171875 77.835938 C 184.714844 77.730469 185.257812 77.648438 185.808594 77.59375 C 186.355469 77.539062 186.90625 77.515625 187.457031 77.515625 C 188.007812 77.515625 188.558594 77.539062 189.109375 77.59375 C 189.65625 77.648438 190.203125 77.730469 190.742188 77.835938 C 191.285156 77.945312 191.816406 78.078125 192.34375 78.238281 C 192.875 78.398438 193.390625 78.582031 193.902344 78.792969 C 194.410156 79.003906 194.910156 79.238281 195.394531 79.5 C 195.882812 79.757812 196.355469 80.042969 196.8125 80.347656 C 197.269531 80.652344 197.714844 80.980469 198.140625 81.332031 C 198.566406 81.679688 198.972656 82.050781 199.363281 82.4375 L 241.464844 124.492188 C 241.851562 124.882812 242.222656 125.292969 242.574219 125.71875 C 242.921875 126.144531 243.25 126.585938 243.554688 127.042969 C 243.863281 127.5 244.144531 127.972656 244.40625 128.457031 C 244.664062 128.945312 244.902344 129.441406 245.113281 129.949219 C 245.324219 130.460938 245.507812 130.976562 245.667969 131.503906 C 245.828125 132.03125 245.960938 132.566406 246.070312 133.105469 C 246.175781 133.644531 246.257812 134.191406 246.3125 134.738281 C 246.367188 135.285156 246.394531 135.835938 246.394531 136.386719 C 246.394531 136.9375 246.367188 137.488281 246.3125 138.035156 C 246.257812 138.582031 246.175781 139.128906 246.070312 139.667969 C 245.960938 140.207031 245.828125 140.742188 245.667969 141.269531 C 245.507812 141.796875 245.324219 142.3125 245.113281 142.824219 C 244.902344 143.332031 244.664062 143.828125 244.40625 144.316406 C 244.144531 144.800781 243.863281 145.273438 243.554688 145.730469 C 243.25 146.1875 242.921875 146.632812 242.574219 147.058594 C 242.222656 147.484375 241.851562 147.890625 241.464844 148.28125 L 199.363281 190.335938 C 197.789062 191.917969 195.96875 193.132812 193.90625 193.988281 C 191.839844 194.84375 189.691406 195.269531 187.457031 195.265625 Z M 169.179688 136.386719 L 187.457031 154.648438 L 205.738281 136.386719 L 187.457031 118.125 Z M 169.179688 136.386719 " fill-opacity="1" fill-rule="nonzero"/><g clip-path="url(#id1)"><path fill="#f39143" d="M 187.457031 313.015625 C 185.222656 313.019531 183.074219 312.597656 181.011719 311.742188 C 178.949219 310.886719 177.128906 309.667969 175.550781 308.089844 L 133.453125 266.035156 C 133.0625 265.644531 132.695312 265.238281 132.34375 264.8125 C 131.996094 264.382812 131.667969 263.941406 131.359375 263.484375 C 131.054688 263.027344 130.769531 262.554688 130.511719 262.070312 C 130.25 261.582031 130.015625 261.085938 129.804688 260.578125 C 129.59375 260.066406 129.40625 259.550781 129.246094 259.023438 C 129.089844 258.496094 128.953125 257.960938 128.847656 257.421875 C 128.738281 256.882812 128.660156 256.335938 128.605469 255.789062 C 128.550781 255.242188 128.523438 254.691406 128.523438 254.140625 C 128.523438 253.589844 128.550781 253.039062 128.605469 252.492188 C 128.660156 251.945312 128.738281 251.398438 128.847656 250.859375 C 128.953125 250.320312 129.089844 249.785156 129.246094 249.257812 C 129.40625 248.730469 129.59375 248.214844 129.804688 247.703125 C 130.015625 247.195312 130.25 246.699219 130.511719 246.210938 C 130.769531 245.726562 131.054688 245.253906 131.359375 244.796875 C 131.667969 244.339844 131.996094 243.894531 132.34375 243.46875 C 132.695312 243.042969 133.0625 242.636719 133.453125 242.246094 L 175.550781 200.191406 C 175.941406 199.804688 176.351562 199.433594 176.777344 199.085938 C 177.203125 198.734375 177.644531 198.40625 178.105469 198.101562 C 178.5625 197.796875 179.035156 197.511719 179.523438 197.253906 C 180.007812 196.992188 180.503906 196.757812 181.015625 196.546875 C 181.523438 196.335938 182.042969 196.152344 182.570312 195.992188 C 183.097656 195.832031 183.632812 195.699219 184.171875 195.589844 C 184.714844 195.484375 185.257812 195.402344 185.808594 195.347656 C 186.355469 195.292969 186.90625 195.265625 187.457031 195.265625 C 188.007812 195.265625 188.558594 195.292969 189.109375 195.347656 C 189.65625 195.402344 190.203125 195.484375 190.742188 195.589844 C 191.285156 195.699219 191.816406 195.832031 192.34375 195.992188 C 192.875 196.152344 193.390625 196.335938 193.902344 196.546875 C 194.410156 196.757812 194.910156 196.992188 195.394531 197.253906 C 195.882812 197.511719 196.355469 197.796875 196.8125 198.101562 C 197.269531 198.40625 197.714844 198.734375 198.140625 199.085938 C 198.566406 199.433594 198.972656 199.804688 199.363281 200.191406 L 241.464844 242.246094 C 241.851562 242.636719 242.222656 243.042969 242.574219 243.46875 C 242.921875 243.894531 243.25 244.339844 243.554688 244.796875 C 243.863281 245.253906 244.144531 245.726562 244.40625 246.210938 C 244.664062 246.699219 244.902344 247.195312 245.113281 247.703125 C 245.324219 248.214844 245.507812 248.730469 245.667969 249.257812 C 245.828125 249.785156 245.960938 250.320312 246.070312 250.859375 C 246.175781 251.398438 246.257812 251.945312 246.3125 252.492188 C 246.367188 253.039062 246.394531 253.589844 246.394531 254.140625 C 246.394531 254.691406 246.367188 255.242188 246.3125 255.789062 C 246.257812 256.335938 246.175781 256.882812 246.070312 257.421875 C 245.960938 257.960938 245.828125 258.496094 245.667969 259.023438 C 245.507812 259.550781 245.324219 260.066406 245.113281 260.578125 C 244.902344 261.085938 244.664062 261.582031 244.40625 262.070312 C 244.144531 262.554688 243.863281 263.027344 243.554688 263.484375 C 243.25 263.941406 242.921875 264.382812 242.574219 264.8125 C 242.222656 265.238281 241.851562 265.644531 241.464844 266.035156 L 199.363281 308.089844 C 197.789062 309.667969 195.96875 310.886719 193.90625 311.742188 C 191.839844 312.597656 189.691406 313.019531 187.457031 313.015625 Z M 169.179688 254.140625 L 187.457031 272.402344 L 205.738281 254.140625 L 187.457031 235.878906 Z M 169.179688 254.140625 " fill-opacity="1" fill-rule="nonzero"/></g><path fill="#f39143" d="M 305.335938 195.265625 C 303.101562 195.269531 300.953125 194.84375 298.890625 193.988281 C 296.824219 193.132812 295.007812 191.917969 293.429688 190.335938 L 251.332031 148.28125 C 250.941406 147.890625 250.570312 147.484375 250.222656 147.058594 C 249.871094 146.632812 249.542969 146.1875 249.238281 145.730469 C 248.929688 145.273438 248.648438 144.800781 248.386719 144.316406 C 248.128906 143.828125 247.894531 143.332031 247.683594 142.824219 C 247.472656 142.3125 247.285156 141.796875 247.125 141.269531 C 246.964844 140.742188 246.832031 140.207031 246.722656 139.667969 C 246.617188 139.128906 246.535156 138.582031 246.480469 138.035156 C 246.425781 137.488281 246.402344 136.9375 246.402344 136.386719 C 246.402344 135.835938 246.425781 135.285156 246.480469 134.738281 C 246.535156 134.191406 246.617188 133.644531 246.722656 133.105469 C 246.832031 132.566406 246.964844 132.03125 247.125 131.503906 C 247.285156 130.976562 247.472656 130.460938 247.683594 129.949219 C 247.894531 129.441406 248.128906 128.945312 248.386719 128.457031 C 248.648438 127.972656 248.929688 127.5 249.238281 127.042969 C 249.542969 126.585938 249.871094 126.144531 250.222656 125.71875 C 250.570312 125.292969 250.941406 124.882812 251.332031 124.492188 L 293.429688 82.4375 C 293.820312 82.050781 294.226562 81.679688 294.65625 81.332031 C 295.082031 80.980469 295.523438 80.652344 295.980469 80.347656 C 296.441406 80.042969 296.914062 79.757812 297.398438 79.5 C 297.886719 79.238281 298.382812 79.003906 298.890625 78.792969 C 299.402344 78.582031 299.921875 78.398438 300.449219 78.238281 C 300.976562 78.078125 301.511719 77.945312 302.050781 77.835938 C 302.589844 77.730469 303.136719 77.648438 303.683594 77.59375 C 304.234375 77.539062 304.785156 77.515625 305.335938 77.515625 C 305.886719 77.515625 306.4375 77.539062 306.984375 77.59375 C 307.535156 77.648438 308.078125 77.730469 308.621094 77.835938 C 309.160156 77.945312 309.695312 78.078125 310.222656 78.238281 C 310.75 78.398438 311.269531 78.582031 311.777344 78.792969 C 312.289062 79.003906 312.785156 79.238281 313.273438 79.5 C 313.757812 79.757812 314.230469 80.042969 314.691406 80.347656 C 315.148438 80.652344 315.589844 80.980469 316.015625 81.332031 C 316.441406 81.679688 316.851562 82.050781 317.242188 82.4375 L 359.339844 124.492188 C 359.730469 124.882812 360.101562 125.292969 360.449219 125.71875 C 360.800781 126.144531 361.128906 126.585938 361.433594 127.042969 C 361.738281 127.5 362.023438 127.972656 362.28125 128.457031 C 362.542969 128.945312 362.777344 129.441406 362.988281 129.949219 C 363.199219 130.460938 363.386719 130.976562 363.546875 131.503906 C 363.707031 132.03125 363.839844 132.566406 363.945312 133.105469 C 364.054688 133.644531 364.136719 134.191406 364.191406 134.738281 C 364.242188 135.285156 364.269531 135.835938 364.269531 136.386719 C 364.269531 136.9375 364.242188 137.488281 364.191406 138.035156 C 364.136719 138.582031 364.054688 139.128906 363.945312 139.667969 C 363.839844 140.207031 363.707031 140.742188 363.546875 141.269531 C 363.386719 141.796875 363.199219 142.3125 362.988281 142.824219 C 362.777344 143.332031 362.542969 143.828125 362.28125 144.316406 C 362.023438 144.800781 361.738281 145.273438 361.433594 145.730469 C 361.128906 146.1875 360.800781 146.632812 360.449219 147.058594 C 360.101562 147.484375 359.730469 147.890625 359.339844 148.28125 L 317.242188 190.335938 C 315.664062 191.917969 313.84375 193.132812 311.78125 193.988281 C 309.71875 194.84375 307.570312 195.269531 305.335938 195.265625 Z M 287.054688 136.386719 L 305.335938 154.648438 L 323.613281 136.386719 L 305.335938 118.125 Z M 287.054688 136.386719 " fill-opacity="1" fill-rule="nonzero"/><path fill="#f39143" d="M 69.582031 195.265625 C 67.347656 195.269531 65.199219 194.84375 63.132812 193.988281 C 61.070312 193.132812 59.25 191.917969 57.675781 190.335938 L 15.578125 148.28125 C 15.1875 147.890625 14.816406 147.484375 14.46875 147.058594 C 14.117188 146.632812 13.789062 146.1875 13.484375 145.730469 C 13.175781 145.273438 12.894531 144.800781 12.632812 144.316406 C 12.375 143.828125 12.136719 143.332031 11.925781 142.824219 C 11.714844 142.3125 11.53125 141.796875 11.371094 141.269531 C 11.210938 140.742188 11.078125 140.207031 10.96875 139.667969 C 10.863281 139.128906 10.78125 138.582031 10.726562 138.035156 C 10.671875 137.488281 10.644531 136.9375 10.644531 136.386719 C 10.644531 135.835938 10.671875 135.285156 10.726562 134.738281 C 10.78125 134.191406 10.863281 133.644531 10.96875 133.105469 C 11.078125 132.566406 11.210938 132.03125 11.371094 131.503906 C 11.53125 130.976562 11.714844 130.460938 11.925781 129.949219 C 12.136719 129.441406 12.375 128.945312 12.632812 128.457031 C 12.894531 127.972656 13.175781 127.5 13.484375 127.042969 C 13.789062 126.585938 14.117188 126.144531 14.46875 125.71875 C 14.816406 125.292969 15.1875 124.882812 15.578125 124.492188 L 57.675781 82.4375 C 58.066406 82.050781 58.472656 81.679688 58.898438 81.332031 C 59.324219 80.980469 59.769531 80.652344 60.226562 80.347656 C 60.683594 80.042969 61.15625 79.757812 61.644531 79.5 C 62.128906 79.238281 62.628906 79.003906 63.136719 78.792969 C 63.648438 78.582031 64.164062 78.398438 64.695312 78.238281 C 65.222656 78.078125 65.753906 77.945312 66.296875 77.835938 C 66.835938 77.730469 67.382812 77.648438 67.929688 77.59375 C 68.480469 77.539062 69.03125 77.515625 69.582031 77.515625 C 70.132812 77.515625 70.683594 77.539062 71.230469 77.59375 C 71.78125 77.648438 72.324219 77.730469 72.867188 77.835938 C 73.40625 77.945312 73.941406 78.078125 74.46875 78.238281 C 74.996094 78.398438 75.515625 78.582031 76.023438 78.792969 C 76.535156 79.003906 77.03125 79.238281 77.519531 79.5 C 78.003906 79.757812 78.476562 80.042969 78.933594 80.347656 C 79.394531 80.652344 79.835938 80.980469 80.261719 81.332031 C 80.6875 81.679688 81.097656 82.050781 81.488281 82.4375 L 123.585938 124.492188 C 123.976562 124.882812 124.34375 125.292969 124.695312 125.71875 C 125.042969 126.144531 125.371094 126.585938 125.679688 127.042969 C 125.984375 127.5 126.269531 127.972656 126.527344 128.457031 C 126.789062 128.945312 127.023438 129.441406 127.234375 129.949219 C 127.445312 130.460938 127.632812 130.976562 127.792969 131.503906 C 127.953125 132.03125 128.085938 132.566406 128.191406 133.105469 C 128.300781 133.644531 128.382812 134.191406 128.433594 134.738281 C 128.488281 135.285156 128.515625 135.835938 128.515625 136.386719 C 128.515625 136.9375 128.488281 137.488281 128.433594 138.035156 C 128.382812 138.582031 128.300781 139.128906 128.191406 139.667969 C 128.085938 140.207031 127.953125 140.742188 127.792969 141.269531 C 127.632812 141.796875 127.445312 142.3125 127.234375 142.824219 C 127.023438 143.332031 126.789062 143.828125 126.527344 144.316406 C 126.269531 144.800781 125.984375 145.273438 125.679688 145.730469 C 125.371094 146.1875 125.042969 146.632812 124.695312 147.058594 C 124.34375 147.484375 123.976562 147.890625 123.585938 148.28125 L 81.488281 190.335938 C 79.910156 191.917969 78.089844 193.132812 76.027344 193.988281 C 73.964844 194.84375 71.816406 195.269531 69.582031 195.265625 Z M 51.300781 136.386719 L 69.582031 154.648438 L 87.859375 136.386719 L 69.582031 118.125 Z M 51.300781 136.386719 " fill-opacity="1" fill-rule="nonzero"/><g fill="#000000" fill-opacity="1"><g transform="translate(155.4876, 329.253259)"><g><path d="M 7.5625 -7.25 L 6.96875 -4.140625 L 9.328125 -4.140625 L 9.328125 -3.53125 L 6.828125 -3.53125 L 6.15625 0 L 5.453125 0 L 6.140625 -3.53125 L 3.328125 -3.53125 L 2.65625 0 L 1.96875 0 L 2.640625 -3.53125 L 0.4375 -3.53125 L 0.4375 -4.140625 L 2.765625 -4.140625 L 3.359375 -7.25 L 1.046875 -7.25 L 1.046875 -7.875 L 3.46875 -7.875 L 4.140625 -11.421875 L 4.859375 -11.421875 L 4.15625 -7.875 L 7.015625 -7.875 L 7.703125 -11.421875 L 8.375 -11.421875 L 7.6875 -7.875 L 9.90625 -7.875 L 9.90625 -7.25 Z M 3.4375 -4.140625 L 6.28125 -4.140625 L 6.890625 -7.25 L 4.046875 -7.25 Z M 3.4375 -4.140625 "/></g></g></g><g fill="#000000" fill-opacity="1"><g transform="translate(165.821019, 329.253259)"><g><path d="M 2.421875 0 L 1.625 0 L 1.625 -11.421875 L 7.875 -11.421875 L 7.875 -10.6875 L 2.421875 -10.6875 L 2.421875 -5.84375 L 7.578125 -5.84375 L 7.578125 -5.109375 L 2.421875 -5.109375 Z M 2.421875 0 "/></g></g></g><g fill="#000000" fill-opacity="1"><g transform="translate(173.850308, 329.253259)"><g><path d="M 7.65625 -8.734375 C 7.65625 -8.023438 7.429688 -7.425781 6.984375 -6.9375 C 6.535156 -6.457031 5.9375 -6.148438 5.1875 -6.015625 L 5.1875 -5.96875 C 6.101562 -5.851562 6.800781 -5.5625 7.28125 -5.09375 C 7.757812 -4.625 8 -3.992188 8 -3.203125 C 8 -2.140625 7.632812 -1.3125 6.90625 -0.71875 C 6.1875 -0.132812 5.144531 0.15625 3.78125 0.15625 C 2.613281 0.15625 1.597656 -0.0625 0.734375 -0.5 L 0.734375 -1.265625 C 1.171875 -1.035156 1.660156 -0.851562 2.203125 -0.71875 C 2.753906 -0.59375 3.269531 -0.53125 3.75 -0.53125 C 4.894531 -0.53125 5.753906 -0.765625 6.328125 -1.234375 C 6.910156 -1.703125 7.203125 -2.359375 7.203125 -3.203125 C 7.203125 -3.960938 6.90625 -4.546875 6.3125 -4.953125 C 5.726562 -5.359375 4.863281 -5.5625 3.71875 -5.5625 L 2.484375 -5.5625 L 2.484375 -6.3125 L 3.734375 -6.3125 C 4.679688 -6.3125 5.429688 -6.535156 5.984375 -6.984375 C 6.535156 -7.429688 6.8125 -8.039062 6.8125 -8.8125 C 6.8125 -9.445312 6.585938 -9.957031 6.140625 -10.34375 C 5.691406 -10.726562 5.101562 -10.921875 4.375 -10.921875 C 3.800781 -10.921875 3.28125 -10.835938 2.8125 -10.671875 C 2.34375 -10.515625 1.816406 -10.242188 1.234375 -9.859375 L 0.859375 -10.390625 C 1.296875 -10.753906 1.828125 -11.046875 2.453125 -11.265625 C 3.078125 -11.484375 3.710938 -11.59375 4.359375 -11.59375 C 5.410156 -11.59375 6.222656 -11.34375 6.796875 -10.84375 C 7.367188 -10.34375 7.65625 -9.640625 7.65625 -8.734375 Z M 7.65625 -8.734375 "/></g></g></g><g fill="#000000" fill-opacity="1"><g transform="translate(182.980896, 329.253259)"><g><path d="M 8.09375 -6.578125 C 8.09375 -5.078125 7.894531 -3.820312 7.5 -2.8125 C 7.113281 -1.800781 6.539062 -1.050781 5.78125 -0.5625 C 5.03125 -0.0820312 4.125 0.15625 3.0625 0.15625 C 2.519531 0.15625 2.019531 0.0859375 1.5625 -0.046875 L 1.5625 -0.71875 C 1.78125 -0.644531 2.046875 -0.585938 2.359375 -0.546875 C 2.679688 -0.515625 2.925781 -0.5 3.09375 -0.5 C 4.375 -0.5 5.378906 -0.960938 6.109375 -1.890625 C 6.835938 -2.816406 7.242188 -4.171875 7.328125 -5.953125 L 7.234375 -5.953125 C 6.859375 -5.453125 6.40625 -5.066406 5.875 -4.796875 C 5.351562 -4.535156 4.804688 -4.40625 4.234375 -4.40625 C 3.171875 -4.40625 2.34375 -4.695312 1.75 -5.28125 C 1.164062 -5.863281 0.875 -6.691406 0.875 -7.765625 C 0.875 -8.910156 1.195312 -9.835938 1.84375 -10.546875 C 2.488281 -11.253906 3.332031 -11.609375 4.375 -11.609375 C 5.125 -11.609375 5.78125 -11.410156 6.34375 -11.015625 C 6.90625 -10.617188 7.335938 -10.039062 7.640625 -9.28125 C 7.941406 -8.519531 8.09375 -7.617188 8.09375 -6.578125 Z M 4.375 -10.921875 C 3.550781 -10.921875 2.894531 -10.640625 2.40625 -10.078125 C 1.914062 -9.523438 1.671875 -8.769531 1.671875 -7.8125 C 1.671875 -6.90625 1.894531 -6.21875 2.34375 -5.75 C 2.800781 -5.28125 3.453125 -5.046875 4.296875 -5.046875 C 4.816406 -5.046875 5.304688 -5.160156 5.765625 -5.390625 C 6.222656 -5.628906 6.582031 -5.941406 6.84375 -6.328125 C 7.113281 -6.710938 7.25 -7.109375 7.25 -7.515625 C 7.25 -8.117188 7.128906 -8.6875 6.890625 -9.21875 C 6.648438 -9.75 6.3125 -10.164062 5.875 -10.46875 C 5.4375 -10.769531 4.9375 -10.921875 4.375 -10.921875 Z M 4.375 -10.921875 "/></g></g></g><g fill="#000000" fill-opacity="1"><g transform="translate(192.111484, 329.253259)"><g><path d="M 5.328125 0 L 4.5625 0 L 4.5625 -8.328125 C 4.5625 -9.078125 4.59375 -9.859375 4.65625 -10.671875 C 4.582031 -10.597656 4.503906 -10.523438 4.421875 -10.453125 C 4.335938 -10.378906 3.53125 -9.742188 2 -8.546875 L 1.5625 -9.109375 L 4.65625 -11.421875 L 5.328125 -11.421875 Z M 5.328125 0 "/></g></g></g><g fill="#000000" fill-opacity="1"><g transform="translate(201.242072, 329.253259)"><g><path d="M 8.921875 -2.921875 L 6.953125 -2.921875 L 6.953125 0 L 6.21875 0 L 6.21875 -2.921875 L 0.34375 -2.921875 L 0.34375 -3.4375 L 6 -11.484375 L 6.953125 -11.484375 L 6.953125 -3.59375 L 8.921875 -3.59375 Z M 6.21875 -3.59375 L 6.21875 -6.859375 C 6.21875 -8.429688 6.253906 -9.75 6.328125 -10.8125 L 6.265625 -10.8125 C 6.160156 -10.625 5.835938 -10.132812 5.296875 -9.34375 L 1.265625 -3.59375 Z M 6.21875 -3.59375 "/></g></g></g><g fill="#000000" fill-opacity="1"><g transform="translate(210.37266, 329.253259)"><g><path d="M 7.65625 -8.734375 C 7.65625 -8.023438 7.429688 -7.425781 6.984375 -6.9375 C 6.535156 -6.457031 5.9375 -6.148438 5.1875 -6.015625 L 5.1875 -5.96875 C 6.101562 -5.851562 6.800781 -5.5625 7.28125 -5.09375 C 7.757812 -4.625 8 -3.992188 8 -3.203125 C 8 -2.140625 7.632812 -1.3125 6.90625 -0.71875 C 6.1875 -0.132812 5.144531 0.15625 3.78125 0.15625 C 2.613281 0.15625 1.597656 -0.0625 0.734375 -0.5 L 0.734375 -1.265625 C 1.171875 -1.035156 1.660156 -0.851562 2.203125 -0.71875 C 2.753906 -0.59375 3.269531 -0.53125 3.75 -0.53125 C 4.894531 -0.53125 5.753906 -0.765625 6.328125 -1.234375 C 6.910156 -1.703125 7.203125 -2.359375 7.203125 -3.203125 C 7.203125 -3.960938 6.90625 -4.546875 6.3125 -4.953125 C 5.726562 -5.359375 4.863281 -5.5625 3.71875 -5.5625 L 2.484375 -5.5625 L 2.484375 -6.3125 L 3.734375 -6.3125 C 4.679688 -6.3125 5.429688 -6.535156 5.984375 -6.984375 C 6.535156 -7.429688 6.8125 -8.039062 6.8125 -8.8125 C 6.8125 -9.445312 6.585938 -9.957031 6.140625 -10.34375 C 5.691406 -10.726562 5.101562 -10.921875 4.375 -10.921875 C 3.800781 -10.921875 3.28125 -10.835938 2.8125 -10.671875 C 2.34375 -10.515625 1.816406 -10.242188 1.234375 -9.859375 L 0.859375 -10.390625 C 1.296875 -10.753906 1.828125 -11.046875 2.453125 -11.265625 C 3.078125 -11.484375 3.710938 -11.59375 4.359375 -11.59375 C 5.410156 -11.59375 6.222656 -11.34375 6.796875 -10.84375 C 7.367188 -10.34375 7.65625 -9.640625 7.65625 -8.734375 Z M 7.65625 -8.734375 "/></g></g></g></svg>