<svg xmlns="http://www.w3.org/2000/svg" xmlns:xlink="http://www.w3.org/1999/xlink" width="500" zoomAndPan="magnify" viewBox="0 0 375 374.999991" height="500" preserveAspectRatio="xMidYMid meet" version="1.0"><defs><clipPath id="id1"><path d="M 18.75 106 L 307 106 L 307 315.074219 L 18.75 315.074219 Z M 18.75 106 " clip-rule="nonzero"/></clipPath><clipPath id="id2"><path d="M 68 60.171875 L 356.25 60.171875 L 356.25 268 L 68 268 Z M 68 60.171875 " clip-rule="nonzero"/></clipPath></defs><path fill="#f39143" d="M 133.230469 167.492188 C 132.636719 167.492188 132.042969 167.691406 131.84375 167.691406 C 131.25 167.691406 130.855469 167.886719 130.460938 168.085938 L 130.066406 168.085938 L 129.867188 168.285156 C 128.878906 168.480469 127.890625 169.074219 127.101562 169.667969 C 126.308594 170.460938 125.519531 171.25 124.925781 172.242188 C 124.925781 172.4375 124.726562 172.636719 124.726562 172.835938 C 124.332031 173.429688 124.132812 174.019531 123.9375 174.613281 L 123.34375 174.417969 L 123.9375 174.613281 L 123.9375 174.8125 C 123.738281 175.605469 123.738281 176.394531 123.738281 176.988281 L 123.738281 245.042969 C 123.738281 245.238281 123.738281 245.4375 123.738281 245.4375 C 123.738281 246.226562 123.9375 246.820312 123.9375 247.414062 C 124.132812 247.613281 124.132812 247.8125 124.132812 247.8125 C 124.332031 248.601562 124.53125 249.195312 124.925781 249.789062 C 125.121094 249.988281 125.121094 249.988281 125.121094 250.183594 C 125.714844 250.976562 126.308594 251.769531 127.101562 252.359375 L 126.109375 253.746094 L 127.101562 252.359375 L 127.296875 252.558594 C 128.285156 253.152344 129.078125 253.746094 130.066406 253.945312 L 130.261719 253.945312 L 130.261719 254.140625 L 130.460938 254.140625 C 130.460938 254.140625 130.660156 254.140625 130.855469 254.339844 C 131.054688 254.339844 131.449219 254.339844 131.84375 254.539062 C 132.042969 254.539062 132.636719 254.539062 133.230469 254.539062 C 134.019531 254.539062 134.808594 254.539062 135.800781 254.140625 C 136.589844 253.945312 137.378906 253.746094 137.972656 253.351562 L 196.695312 219.324219 C 196.890625 219.324219 196.890625 219.125 197.089844 219.125 C 197.683594 218.730469 198.273438 218.335938 198.671875 217.9375 C 199.265625 217.34375 199.855469 216.554688 200.253906 215.960938 L 206.972656 219.71875 L 200.253906 215.761719 L 200.253906 215.566406 L 200.449219 215.367188 C 200.84375 214.773438 201.042969 214.179688 201.242188 213.585938 C 201.4375 212.796875 201.4375 211.804688 201.4375 211.015625 C 201.4375 210.222656 201.4375 209.433594 201.242188 208.640625 C 201.042969 207.851562 200.648438 207.058594 200.253906 206.464844 C 200.253906 206.265625 200.253906 206.070312 200.054688 206.070312 C 199.660156 205.277344 199.265625 204.683594 198.671875 204.289062 C 198.078125 203.695312 197.484375 203.101562 196.695312 202.707031 L 137.972656 168.878906 C 137.777344 168.679688 137.777344 168.679688 137.578125 168.480469 C 136.984375 168.285156 136.390625 168.085938 135.800781 167.886719 C 134.808594 167.691406 134.019531 167.492188 133.230469 167.492188 Z M 129.273438 152.0625 C 130.660156 151.863281 132.042969 151.667969 133.230469 151.667969 L 133.625 151.667969 L 133.625 151.863281 C 135.601562 151.863281 137.777344 152.0625 139.753906 152.65625 C 141.53125 153.050781 143.3125 153.84375 145.089844 154.832031 C 145.488281 154.832031 145.683594 155.03125 145.882812 155.226562 L 141.929688 161.953125 L 145.882812 155.226562 L 204.601562 189.054688 C 206.578125 190.242188 208.359375 191.628906 209.941406 193.210938 C 211.324219 194.59375 212.707031 196.375 213.695312 197.957031 L 213.894531 198.15625 L 213.894531 198.355469 C 215.082031 200.332031 215.871094 202.507812 216.464844 204.488281 C 217.058594 206.664062 217.253906 208.839844 217.253906 211.015625 C 217.253906 213.191406 217.058594 215.367188 216.464844 217.542969 C 215.871094 219.523438 215.277344 221.300781 214.289062 223.082031 C 214.09375 223.28125 214.09375 223.675781 213.894531 223.875 C 212.707031 225.65625 211.523438 227.433594 209.941406 229.015625 C 208.554688 230.402344 206.972656 231.589844 205.195312 232.777344 C 204.996094 232.777344 204.800781 232.972656 204.601562 232.972656 L 200.648438 226.246094 L 204.601562 232.972656 L 145.882812 267 C 143.90625 268.1875 141.929688 268.980469 139.753906 269.570312 C 137.777344 269.96875 135.402344 270.363281 133.230469 270.363281 C 132.042969 270.363281 130.660156 270.164062 129.273438 269.96875 C 128.285156 269.769531 127.296875 269.570312 126.308594 269.375 C 126.109375 269.375 125.714844 269.175781 125.519531 269.175781 L 125.320312 268.980469 L 125.121094 268.980469 L 126.308594 265.21875 L 125.121094 268.980469 C 122.355469 267.988281 119.785156 266.605469 117.410156 264.824219 C 117.410156 264.824219 117.214844 264.625 117.214844 264.625 C 115.039062 262.847656 113.0625 260.667969 111.679688 258.296875 C 111.480469 258.097656 111.480469 257.898438 111.28125 257.703125 L 113.0625 256.714844 L 111.28125 257.703125 C 110.292969 255.921875 109.503906 254.140625 108.910156 252.164062 C 108.910156 251.964844 108.710938 251.769531 108.710938 251.570312 C 108.316406 249.789062 107.921875 247.8125 107.921875 245.832031 C 107.921875 245.636719 107.921875 245.4375 107.921875 245.238281 C 107.921875 245.238281 107.921875 245.042969 107.921875 245.042969 L 107.921875 176.988281 C 107.921875 175.011719 108.121094 172.835938 108.710938 171.054688 C 108.710938 170.855469 108.710938 170.660156 108.710938 170.460938 C 109.304688 168.679688 109.898438 166.898438 110.886719 165.117188 C 111.085938 164.921875 111.085938 164.722656 111.28125 164.328125 L 118.203125 168.285156 L 111.28125 164.328125 C 112.863281 161.757812 114.839844 159.382812 117.214844 157.601562 C 119.390625 155.625 121.960938 154.238281 124.53125 153.25 C 124.726562 153.25 124.925781 153.050781 125.121094 153.050781 L 125.519531 153.050781 C 126.703125 152.65625 128.089844 152.261719 129.273438 152.0625 Z M 200.253906 215.761719 L 200.253906 215.566406 Z M 200.253906 215.761719 " fill-opacity="1" fill-rule="nonzero"/><g clip-path="url(#id1)"><path fill="#f39143" d="M 56.121094 106.957031 L 269.054688 106.957031 C 279.335938 106.957031 288.628906 111.308594 295.546875 118.035156 C 302.269531 124.761719 306.421875 134.058594 306.421875 144.546875 L 306.421875 277.683594 C 306.421875 287.96875 302.269531 297.269531 295.546875 304.191406 C 288.628906 310.917969 279.335938 315.074219 269.054688 315.074219 L 56.121094 315.074219 C 45.839844 315.074219 36.546875 310.917969 29.828125 304.191406 C 22.90625 297.269531 18.753906 287.96875 18.753906 277.683594 L 18.753906 144.546875 C 18.753906 134.058594 22.90625 124.761719 29.828125 118.035156 C 36.546875 111.308594 45.839844 106.957031 56.121094 106.957031 Z M 269.054688 122.785156 L 56.121094 122.785156 C 50.191406 122.785156 44.851562 125.355469 40.898438 129.113281 C 36.945312 133.070312 34.570312 138.609375 34.570312 144.546875 L 34.570312 277.683594 C 34.570312 283.617188 36.945312 288.960938 40.898438 292.914062 C 44.851562 296.871094 50.191406 299.246094 56.121094 299.246094 L 269.054688 299.246094 C 274.988281 299.246094 280.324219 296.871094 284.277344 292.914062 C 288.234375 288.960938 290.605469 283.617188 290.605469 277.683594 L 290.605469 144.546875 C 290.605469 138.609375 288.234375 133.070312 284.277344 129.113281 C 280.324219 125.355469 274.988281 122.785156 269.054688 122.785156 Z M 269.054688 122.785156 " fill-opacity="1" fill-rule="nonzero"/></g><g clip-path="url(#id2)"><path fill="#f39143" d="M 105.945312 60.074219 L 318.679688 60.074219 C 328.960938 60.074219 338.453125 64.226562 345.171875 70.953125 C 351.894531 77.679688 356.246094 87.175781 356.246094 97.460938 L 356.246094 230.601562 C 356.246094 240.886719 351.894531 250.382812 345.171875 257.109375 C 338.453125 263.835938 329.160156 267.988281 318.679688 267.988281 L 298.515625 267.988281 C 294.164062 267.988281 290.605469 264.429688 290.605469 260.078125 L 290.605469 144.546875 C 290.605469 138.609375 288.234375 133.070312 284.277344 129.113281 C 280.324219 125.355469 274.988281 122.785156 269.054688 122.785156 L 76.484375 122.785156 C 71.9375 122.785156 68.578125 119.222656 68.578125 114.871094 L 68.578125 97.460938 C 68.578125 87.175781 72.730469 77.679688 79.453125 70.953125 C 86.175781 64.226562 95.664062 60.074219 105.945312 60.074219 Z M 318.679688 75.898438 L 105.945312 75.898438 C 100.011719 75.898438 94.476562 78.273438 90.722656 82.230469 C 86.765625 86.1875 84.394531 91.527344 84.394531 97.460938 L 84.394531 106.957031 L 269.054688 106.957031 C 279.335938 106.957031 288.628906 111.308594 295.546875 118.035156 C 302.269531 124.761719 306.421875 134.058594 306.421875 144.546875 L 306.421875 252.164062 L 318.679688 252.164062 C 324.613281 252.164062 330.148438 249.789062 334.101562 245.832031 C 337.859375 241.875 340.429688 236.535156 340.429688 230.601562 L 340.429688 97.460938 C 340.429688 91.527344 337.859375 86.1875 334.101562 82.230469 C 330.148438 78.273438 324.613281 75.898438 318.679688 75.898438 Z M 318.679688 75.898438 " fill-opacity="1" fill-rule="nonzero"/></g></svg>