<svg xmlns="http://www.w3.org/2000/svg" xmlns:xlink="http://www.w3.org/1999/xlink" width="500" zoomAndPan="magnify" viewBox="0 0 375 374.999991" height="500" preserveAspectRatio="xMidYMid meet" version="1.0"><defs><clipPath id="id1"><path d="M 23.117188 23.117188 L 351.617188 23.117188 L 351.617188 351.617188 L 23.117188 351.617188 Z M 23.117188 23.117188 " clip-rule="nonzero"/></clipPath></defs><g clip-path="url(#id1)"><path fill="#5f2f66" d="M 275.808594 194.527344 C 275.808594 208.789062 274.101562 223.285156 273.972656 224.367188 C 273.347656 228.648438 271.238281 236.503906 268.207031 239.570312 L 268.132812 239.648438 C 263.257812 244.757812 258.089844 245.257812 254.316406 245.625 C 253.886719 245.667969 253.484375 245.707031 253.121094 245.75 C 227.464844 247.59375 188.769531 247.699219 187.394531 247.699219 C 185.898438 247.6875 138.636719 247.226562 123.789062 245.851562 C 122.949219 245.703125 122.046875 245.59375 121.101562 245.480469 C 116.84375 244.96875 111.015625 244.269531 106.605469 239.648438 L 106.53125 239.570312 C 103.5 236.503906 101.390625 228.640625 100.769531 224.367188 C 100.640625 223.316406 98.929688 208.800781 98.929688 194.527344 L 98.929688 180.148438 C 98.929688 165.847656 100.648438 151.304688 100.769531 150.304688 C 101.289062 146.6875 103.363281 138.308594 106.53125 135.105469 L 106.605469 135.03125 C 111.484375 129.917969 116.648438 129.417969 120.417969 129.050781 C 120.851562 129.011719 121.25 128.96875 121.617188 128.929688 C 147.601562 127.0625 186.933594 127.039062 187.328125 127.039062 L 187.410156 127.039062 C 187.804688 127.039062 227.132812 127.0625 253.121094 128.929688 C 253.484375 128.96875 253.886719 129.011719 254.320312 129.050781 C 258.089844 129.417969 263.257812 129.917969 268.132812 135.027344 L 268.207031 135.105469 C 271.238281 138.171875 273.347656 146.039062 273.972656 150.3125 C 274.101562 151.378906 275.808594 165.886719 275.808594 180.148438 Z M 286.492188 148.589844 C 286.269531 147.042969 284.152344 133.308594 277.234375 126.265625 C 269.125 117.796875 259.953125 116.90625 255.539062 116.476562 C 255.144531 116.4375 254.785156 116.402344 254.460938 116.363281 L 254.167969 116.339844 C 227.726562 114.425781 187.808594 114.402344 187.410156 114.402344 L 187.328125 114.402344 C 186.925781 114.402344 147.011719 114.425781 120.566406 116.339844 L 120.277344 116.363281 C 119.953125 116.402344 119.59375 116.4375 119.199219 116.476562 C 114.785156 116.90625 105.617188 117.796875 97.503906 126.265625 C 90.585938 133.3125 88.46875 147.046875 88.25 148.589844 L 88.234375 148.699219 C 88.152344 149.34375 86.292969 164.605469 86.292969 180.148438 L 86.292969 194.527344 C 86.292969 210.074219 88.152344 225.332031 88.234375 225.976562 L 88.25 226.089844 C 88.46875 227.632812 90.585938 241.367188 97.503906 248.414062 C 105.039062 256.277344 114.503906 257.414062 119.59375 258.027344 C 120.445312 258.128906 121.25 258.226562 121.769531 258.324219 L 122.332031 258.402344 C 137.589844 259.863281 185.289062 260.316406 187.308594 260.335938 L 187.378906 260.335938 C 187.78125 260.335938 227.730469 260.253906 254.167969 258.339844 L 254.460938 258.3125 C 254.785156 258.273438 255.144531 258.238281 255.539062 258.203125 C 259.953125 257.773438 269.125 256.878906 277.238281 248.410156 C 284.152344 241.367188 286.269531 227.632812 286.492188 226.089844 L 286.507812 225.976562 C 286.585938 225.332031 288.445312 210.074219 288.445312 194.527344 L 288.445312 180.148438 C 288.445312 164.605469 286.585938 149.34375 286.507812 148.703125 Z M 174.109375 201.5625 L 174.109375 169.125 L 205.308594 185.402344 Z M 216.539062 177.007812 L 175.335938 155.511719 C 172.375 153.964844 168.898438 154.074219 166.042969 155.808594 C 163.183594 157.542969 161.476562 160.570312 161.476562 163.910156 L 161.476562 206.757812 C 161.476562 210.09375 163.179688 213.121094 166.027344 214.855469 C 167.550781 215.777344 169.246094 216.242188 170.949219 216.242188 C 172.4375 216.242188 173.929688 215.886719 175.3125 215.171875 L 216.511719 193.824219 C 219.664062 192.191406 221.628906 188.972656 221.632812 185.421875 C 221.636719 181.875 219.683594 178.652344 216.539062 177.007812 Z M 294.578125 294.578125 C 265.941406 323.214844 227.867188 338.984375 187.367188 338.984375 C 146.871094 338.984375 108.796875 323.214844 80.160156 294.578125 C 51.523438 265.941406 35.753906 227.867188 35.753906 187.367188 C 35.753906 146.871094 51.523438 108.796875 80.160156 80.160156 C 108.796875 51.523438 146.871094 35.753906 187.367188 35.753906 C 227.867188 35.753906 265.941406 51.523438 294.578125 80.160156 C 323.214844 108.796875 338.984375 146.871094 338.984375 187.367188 C 338.984375 227.867188 323.214844 265.941406 294.578125 294.578125 Z M 303.511719 71.226562 C 272.488281 40.203125 231.242188 23.117188 187.367188 23.117188 C 143.496094 23.117188 102.25 40.203125 71.226562 71.226562 C 40.203125 102.25 23.117188 143.496094 23.117188 187.367188 C 23.117188 231.242188 40.203125 272.488281 71.226562 303.511719 C 102.25 334.535156 143.496094 351.617188 187.367188 351.617188 C 231.242188 351.617188 272.488281 334.535156 303.511719 303.511719 C 334.535156 272.488281 351.617188 231.242188 351.617188 187.367188 C 351.617188 143.496094 334.535156 102.25 303.511719 71.226562 " fill-opacity="1" fill-rule="nonzero"/></g></svg>